                                                                        S      1
,,18HLickport Holder v7,18HLickport Holder v7,7Hunknown,7Hunknown,32,38,G      1
7,99,15,,1.,2,2HMM,1,0.08,15H20210113.132611,0.01,10000.,7Hunknown,7HunkG      2
nown,11,0,15H20200212.214447;                                           G      3
     186       1                                                00000000D      1
     186            -251       1       0                               0D      2
     514       2                                                00010000D      3
     514                       2       1                               0D      4
     510       4                                                00010000D      5
     510            -251       1       1                               0D      6
     510       5                                                00010000D      7
     510            -251       1       1                               0D      8
     510       6                                                00010000D      9
     510            -251       1       1                               0D     10
     510       7                                                00010000D     11
     510            -251       1       1                               0D     12
     510       8                                                00010000D     13
     510            -251       1       1                               0D     14
     510       9                                                00010000D     15
     510            -251       1       1                               0D     16
     510      10                                                00010000D     17
     510            -251       1       1                               0D     18
     510      11                                                00010000D     19
     510            -251       1       1                               0D     20
     510      12                                                00010000D     21
     510            -251       1       1                               0D     22
     510      13                                                00010000D     23
     510            -251       1       1                               0D     24
     510      14                                                00010000D     25
     510            -251       1       1                               0D     26
     510      15                                                00010000D     27
     510            -251       1       1                               0D     28
     510      16                                                00010000D     29
     510            -251       1       1                               0D     30
     510      17                                                00010000D     31
     510            -251       1       1                               0D     32
     510      18                                                00010000D     33
     510            -251       1       1                               0D     34
     510      19                                                00010000D     35
     510            -251       1       1                               0D     36
     510      20                                                00010000D     37
     510            -251       1       1                               0D     38
     510      21                                                00010000D     39
     510            -251       1       1                               0D     40
     510      22                                                00010000D     41
     510            -251       1       1                               0D     42
     508      23                                                00010000D     43
     508                       1       1                               0D     44
     508      24                                                00010000D     45
     508                       2       1                               0D     46
     508      26                                                00010000D     47
     508                       2       1                               0D     48
     508      28                                                00010000D     49
     508                       1       1                               0D     50
     508      29                                                00010000D     51
     508                       1       1                               0D     52
     508      30                                                00010000D     53
     508                       1       1                               0D     54
     508      31                                                00010000D     55
     508                       2       1                               0D     56
     508      33                                                00010000D     57
     508                       1       1                               0D     58
     508      34                                                00010000D     59
     508                       1       1                               0D     60
     508      35                                                00010000D     61
     508                       1       1                               0D     62
     508      36                                                00010000D     63
     508                       2       1                               0D     64
     508      38                                                00010000D     65
     508                       1       1                               0D     66
     508      39                                                00010000D     67
     508                       1       1                               0D     68
     508      40                                                00010000D     69
     508                       1       1                               0D     70
     508      41                                                00010000D     71
     508                       1       1                               0D     72
     508      42                                                00010000D     73
     508                       1       1                               0D     74
     508      43                                                00010000D     75
     508                       1       1                               0D     76
     508      44                                                00010000D     77
     508                       1       1                               0D     78
     508      45                                                00010000D     79
     508                       1       1                               0D     80
     508      46                                                00010000D     81
     508                       2       1                               0D     82
     508      48                                                00010000D     83
     508                       1       1                               0D     84
     508      49                                                00010000D     85
     508                       1       1                               0D     86
     508      50                                                00010000D     87
     508                       1       1                               0D     88
     508      51                                                00010000D     89
     508                       2       1                               0D     90
     508      53                                                00010000D     91
     508                       2       1                               0D     92
     508      55                                                00010000D     93
     508                       1       1                               0D     94
     508      56                                                00010000D     95
     508                       3       1                               0D     96
     126      59                                                00010000D     97
     126       0               5       0                               0D     98
     126      64                                                00010000D     99
     126       0               2       0                               0D    100
     126      66                                                00010000D    101
     126       0               5       0                               0D    102
     126      71                                                00010000D    103
     126       0               2       0                               0D    104
     126      73                                                00010000D    105
     126       0               2       0                               0D    106
     126      75                                                00010000D    107
     126       0               2       0                               0D    108
     126      77                                                00010000D    109
     126       0               2       0                               0D    110
     126      79                                                00010000D    111
     126       0               2       0                               0D    112
     126      81                                                00010000D    113
     126       0               2       0                               0D    114
     126      83                                                00010000D    115
     126       0               2       0                               0D    116
     126      85                                                00010000D    117
     126       0               5       0                               0D    118
     126      90                                                00010000D    119
     126       0               2       0                               0D    120
     126      92                                                00010000D    121
     126       0               5       0                               0D    122
     126      97                                                00010000D    123
     126       0               2       0                               0D    124
     126      99                                                00010000D    125
     126       0               5       0                               0D    126
     126     104                                                00010000D    127
     126       0               8       0                               0D    128
     126     112                                                00010000D    129
     126       0               9       0                               0D    130
     126     121                                                00010000D    131
     126       0               2       0                               0D    132
     126     123                                                00010000D    133
     126       0               5       0                               0D    134
     126     128                                                00010000D    135
     126       0               2       0                               0D    136
     126     130                                                00010000D    137
     126       0               2       0                               0D    138
     126     132                                                00010000D    139
     126       0               2       0                               0D    140
     126     134                                                00010000D    141
     126       0               2       0                               0D    142
     126     136                                                00010000D    143
     126       0               8       0                               0D    144
     126     144                                                00010000D    145
     126       0               5       0                               0D    146
     126     149                                                00010000D    147
     126       0               5       0                               0D    148
     126     154                                                00010000D    149
     126       0               2       0                               0D    150
     126     156                                                00010000D    151
     126       0               2       0                               0D    152
     126     158                                                00010000D    153
     126       0               2       0                               0D    154
     126     160                                                00010000D    155
     126       0               2       0                               0D    156
     126     162                                                00010000D    157
     126       0               5       0                               0D    158
     126     167                                                00010000D    159
     126       0               2       0                               0D    160
     126     169                                                00010000D    161
     126       0               5       0                               0D    162
     126     174                                                00010000D    163
     126       0               2       0                               0D    164
     126     176                                                00010000D    165
     126       0               5       0                               0D    166
     126     181                                                00010000D    167
     126       0               8       0                               0D    168
     126     189                                                00010000D    169
     126       0               8       0                               0D    170
     126     197                                                00010000D    171
     126       0               8       0                               0D    172
     126     205                                                00010000D    173
     126       0               8       0                               0D    174
     126     213                                                00010000D    175
     126       0               2       0                               0D    176
     126     215                                                00010000D    177
     126       0               5       0                               0D    178
     126     220                                                00010000D    179
     126       0               2       0                               0D    180
     126     222                                                00010000D    181
     126       0               2       0                               0D    182
     126     224                                                00010000D    183
     126       0               2       0                               0D    184
     126     226                                                00010000D    185
     126       0               2       0                               0D    186
     126     228                                                00010000D    187
     126       0               9       0                               0D    188
     126     237                                                00010000D    189
     126       0               2       0                               0D    190
     126     239                                                00010000D    191
     126       0               2       0                               0D    192
     126     241                                                00010000D    193
     126       0               2       0                               0D    194
     126     243                                                00010000D    195
     126       0               5       0                               0D    196
     126     248                                                00010000D    197
     126       0               7       0                               0D    198
     126     255                                                00010000D    199
     126       0               2       0                               0D    200
     126     257                                                00010000D    201
     126       0               5       0                               0D    202
     126     262                                                00010000D    203
     126       0               7       0                               0D    204
     126     269                                                00010000D    205
     126       0               2       0                               0D    206
     128     271                                                00010000D    207
     128       0    -251       7       0                               0D    208
     128     278                                                00010000D    209
     128       0    -251       4       0                               0D    210
     128     282                                                00010000D    211
     128       0    -251       5       0                               0D    212
     128     287                                                00010000D    213
     128       0    -251       8       0                               0D    214
     128     295                                                00010000D    215
     128       0    -251       4       0                               0D    216
     128     299                                                00010000D    217
     128       0    -251       7       0                               0D    218
     128     306                                                00010000D    219
     128       0    -251       4       0                               0D    220
     128     310                                                00010000D    221
     128       0    -251       5       0                               0D    222
     128     315                                                00010000D    223
     128       0    -251       7       0                               0D    224
     128     322                                                00010000D    225
     128       0    -251       9       0                               0D    226
     128     331                                                00010000D    227
     128       0    -251       5       0                               0D    228
     128     336                                                00010000D    229
     128       0    -251       6       0                               0D    230
     128     342                                                00010000D    231
     128       0    -251       4       0                               0D    232
     128     346                                                00010000D    233
     128       0    -251      13       0                               0D    234
     128     359                                                00010000D    235
     128       0    -251      13       0                               0D    236
     128     372                                                00010000D    237
     128       0    -251      12       0                               0D    238
     128     384                                                00010000D    239
     128       0    -251      12       0                               0D    240
     128     396                                                00010000D    241
     128       0    -251      13       0                               0D    242
     128     409                                                00010000D    243
     128       0    -251       4       0                               0D    244
     502     413                                                00010000D    245
     502                       9       1                               0D    246
     504     422                                                00010001D    247
     504                      16       1                               0D    248
     406     438                                                00000000D    249
     406                       1      15                               0D    250
     314     439                                                00000200D    251
     314                       2       0                               0D    252
186,3,1,0,0,1,249;                                                     1P      1
514,19,5,1,7,1,9,1,11,1,13,1,15,1,17,1,19,1,21,1,23,1,25,1,27,1,       3P      2
29,1,31,1,33,1,35,1,37,1,39,1,41,1;                                    3P      3
510,207,1,1,43;                                                        5P      4
510,209,1,1,45;                                                        7P      5
510,211,3,1,47,49,51;                                                  9P      6
510,213,1,1,53;                                                       11P      7
510,215,2,1,55,57;                                                    13P      8
510,217,1,1,59;                                                       15P      9
510,219,1,1,61;                                                       17P     10
510,221,5,1,63,65,67,69,71;                                           19P     11
510,223,1,1,73;                                                       21P     12
510,225,1,1,75;                                                       23P     13
510,227,1,1,77;                                                       25P     14
510,229,1,1,79;                                                       27P     15
510,231,2,1,81,83;                                                    29P     16
510,233,1,1,85;                                                       31P     17
510,235,1,1,87;                                                       33P     18
510,237,1,1,89;                                                       35P     19
510,239,1,1,91;                                                       37P     20
510,241,1,1,93;                                                       39P     21
510,243,1,1,95;                                                       41P     22
508,4,0,247,1,1,0,0,247,2,1,0,0,247,3,1,0,0,247,4,1,0;                43P     23
508,6,0,247,2,0,0,0,247,5,0,0,0,247,6,0,0,0,247,7,0,0,0,247,8,0,      45P     24
0,0,247,9,0,0;                                                        45P     25
508,8,0,247,1,0,0,0,247,10,0,0,0,247,11,0,0,0,247,12,0,0,0,247,       47P     26
13,0,0,0,247,14,1,0,0,247,15,0,0,0,247,5,1,0;                         47P     27
508,1,0,247,16,1,0;                                                   49P     28
508,1,0,247,17,1,0;                                                   51P     29
508,4,0,247,15,1,0,0,247,18,1,0,0,247,19,1,0,0,247,6,1,0;             53P     30
508,6,0,247,18,0,0,0,247,14,0,0,0,247,20,0,0,0,247,21,0,0,0,247,      55P     31
22,0,0,0,247,23,1,0;                                                  55P     32
508,1,0,247,24,0,0;                                                   57P     33
508,4,0,247,25,1,0,0,247,22,1,0,0,247,26,1,0,0,247,27,1,0;            59P     34
508,4,0,247,27,0,0,0,247,28,1,0,0,247,29,0,0,0,247,30,0,0;            61P     35
508,8,0,247,26,0,0,0,247,21,1,0,0,247,31,0,0,0,247,32,1,0,0,247,      63P     36
33,0,0,0,247,34,0,0,0,247,35,0,0,0,247,28,0,0;                        63P     37
508,1,0,247,36,1,0;                                                   65P     38
508,1,0,247,37,1,0;                                                   67P     39
508,1,0,247,38,1,0;                                                   69P     40
508,1,0,247,39,1,0;                                                   71P     41
508,4,0,247,35,1,0,0,247,40,1,0,0,247,41,1,0,0,247,29,1,0;            73P     42
508,4,0,247,13,1,0,0,247,42,1,0,0,247,31,1,0,0,247,20,1,0;            75P     43
508,4,0,247,42,0,0,0,247,12,1,0,0,247,43,0,0,0,247,32,0,0;            77P     44
508,4,0,247,11,1,0,0,247,44,1,0,0,247,33,1,0,0,247,43,1,0;            79P     45
508,6,0,247,45,1,0,0,247,40,0,0,0,247,34,1,0,0,247,44,0,0,0,247,      81P     46
10,1,0,0,247,4,0,0;                                                   81P     47
508,1,0,247,46,1,0;                                                   83P     48
508,4,0,247,36,0,0,0,247,47,1,0,0,247,17,0,0,0,247,47,0,0;            85P     49
508,4,0,247,37,0,0,0,247,48,1,0,0,247,16,0,0,0,247,48,0,0;            87P     50
508,5,0,247,38,0,0,0,247,49,1,0,0,247,50,1,0,0,247,51,1,0,0,247,      89P     51
49,0,0;                                                               89P     52
508,5,0,247,39,0,0,0,247,52,1,0,0,247,53,1,0,0,247,54,1,0,0,247,      91P     53
52,0,0;                                                               91P     54
508,4,0,247,46,0,0,0,247,55,1,0,0,247,24,1,0,0,247,55,0,0;            93P     55
508,14,0,247,25,0,0,0,247,30,1,0,0,247,41,0,0,0,247,45,0,0,0,         95P     56
247,3,0,0,0,247,9,1,0,0,247,53,0,0,0,247,54,0,0,0,247,8,1,0,0,        95P     57
247,50,0,0,0,247,51,0,0,0,247,7,1,0,0,247,19,0,0,0,247,23,0,0;        95P     58
126,2,2,0,0,0,0,-0.785398163397444,-0.785398163397444,                97P     59
-0.785398163397444,0.785398163397453,0.785398163397453,               97P     60
0.785398163397453,1.,0.707106781186545,1.,9.525,13.11,19.,9.525,      97P     61
12.86,19.,9.275,12.86,19.,-0.785398163397444,0.785398163397453,       97P     62
0.,0.,0.;                                                             97P     63
126,1,1,0,0,1,0,-0.475,-0.475,0.155,0.155,1.,1.,9.275,12.86,19.,      99P     64
9.275,12.86,12.7,-0.475,0.155,0.,0.,0.;                               99P     65
126,2,2,0,0,0,0,-0.785398163397453,-0.785398163397453,               101P     66
-0.785398163397453,0.785398163397444,0.785398163397444,              101P     67
0.785398163397444,1.,0.707106781186545,1.,9.275,12.86,12.7,          101P     68
9.525,12.86,12.7,9.525,13.11,12.7,-0.785398163397453,                101P     69
0.785398163397444,0.,0.,0.;                                          101P     70
126,1,1,0,0,1,0,-0.155,-0.155,0.475,0.475,1.,1.,9.525,13.11,         103P     71
12.7,9.525,13.11,19.,-0.155,0.475,0.,0.,0.;                          103P     72
126,1,1,0,0,1,0,0.025,0.025,0.9275,0.9275,1.,1.,0.25,12.86,19.,      105P     73
9.275,12.86,19.,0.025,0.9275,0.,0.,0.;                               105P     74
126,1,1,0,0,1,0,-0.155,-0.155,0.475,0.475,1.,1.,0.25,12.86,12.7,     107P     75
0.25,12.86,19.,-0.155,0.475,0.,0.,0.;                                107P     76
126,1,1,0,0,1,0,-0.254,-0.254,-0.025,-0.025,1.,1.,2.54,12.86,        109P     77
12.7,0.25,12.86,12.7,-0.254,-0.025,0.,0.,0.;                         109P     78
126,1,1,0,0,1,0,-0.6985,-0.6985,-0.254,-0.254,1.,1.,6.985,12.86,     111P     79
12.7,2.54,12.86,12.7,-0.6985,-0.254,0.,0.,0.;                        111P     80
126,1,1,0,0,1,0,-0.9275,-0.9275,-0.6985,-0.6985,1.,1.,9.275,         113P     81
12.86,12.7,6.985,12.86,12.7,-0.9275,-0.6985,0.,0.,0.;                113P     82
126,1,1,0,0,1,0,0.2,0.2,0.339,0.339,1.,1.,9.525,14.5,19.,9.525,      115P     83
13.11,19.,0.2,0.339,0.,0.,0.;                                        115P     84
126,2,2,0,0,0,0,-0.785398163397448,-0.785398163397448,               117P     85
-0.785398163397448,0.785398163397449,0.785398163397449,              117P     86
0.785398163397449,1.,0.707106781186547,1.,7.525,16.5,19.,9.525,      117P     87
16.5,19.,9.525,14.5,19.,-0.785398163397448,0.785398163397449,0.,     117P     88
0.,0.;                                                               117P     89
126,1,1,0,0,1,0,0.2,0.2,0.7525,0.7525,1.,1.,2.,16.5,19.,7.525,       119P     90
16.5,19.,0.2,0.7525,0.,0.,0.;                                        119P     91
126,2,2,0,0,0,0,-0.785398163397449,-0.785398163397449,               121P     92
-0.785398163397449,0.785398163397448,0.785398163397448,              121P     93
0.785398163397448,1.,0.707106781186547,1.,0.,14.5,19.,               121P     94
-6.93889390390723D-17,16.5,19.,2.,16.5,19.,-0.785398163397449,       121P     95
0.785398163397448,0.,0.,0.;                                          121P     96
126,1,1,0,0,1,0,0.2,0.2,0.339,0.339,1.,1.,0.,14.5,19.,0.,13.11,      123P     97
19.,0.2,0.339,0.,0.,0.;                                              123P     98
126,2,2,0,0,0,0,-0.78539816339745,-0.78539816339745,                 125P     99
-0.78539816339745,0.785398163397447,0.785398163397447,               125P    100
0.785398163397447,1.,0.707106781186551,1.,0.25,12.86,19.,            125P    101
8.673617379884D-18,12.86,19.,0.,13.11,19.,-0.78539816339745,         125P    102
0.785398163397447,0.,0.,0.;                                          125P    103
126,8,2,0,1,0,0,-3.14159265358979,-3.14159265358979,                 127P    104
-3.14159265358979,-1.5707963267949,-1.5707963267949,0.,0.,           127P    105
1.5707963267949,1.5707963267949,3.14159265358979,                    127P    106
3.14159265358979,3.14159265358979,1.,0.70710678118655,1.,            127P    107
0.70710678118655,1.,0.70710678118655,1.,0.70710678118655,1.,         127P    108
7.77,14.6,19.,7.77,13.815,19.,6.985,13.815,19.,6.2,13.815,19.,       127P    109
6.2,14.6,19.,6.2,15.385,19.,6.985,15.385,19.,7.77,15.385,19.,        127P    110
7.77,14.6,19.,-3.14159265358979,3.14159265358979,0.,0.,0.;           127P    111
126,8,2,0,1,0,0,-3.14159265358979,-3.14159265358979,                 129P    112
-3.14159265358979,-1.5707963267949,-1.5707963267949,0.,0.,           129P    113
1.5707963267949,1.5707963267949,3.14159265358979,                    129P    114
3.14159265358979,3.14159265358979,1.,0.70710678118655,1.,            129P    115
0.707106781186551,1.,0.707106781186551,1.,0.70710678118655,1.,       129P    116
3.325,14.6,19.,3.325,13.815,19.,2.54,13.815,19.,1.755,13.815,        129P    117
19.,1.755,14.6,19.,1.755,15.385,19.,2.54,15.385,19.,3.325,           129P    118
15.385,19.,3.325,14.6,19.,-3.14159265358979,3.14159265358979,0.,     129P    119
0.,0.;                                                               129P    120
126,1,1,0,0,1,0,-0.475,-0.475,0.155,0.155,1.,1.,0.,13.11,19.,0.,     131P    121
13.11,12.7,-0.475,0.155,0.,0.,0.;                                    131P    122
126,2,2,0,0,0,0,-0.785398163397447,-0.785398163397447,               133P    123
-0.785398163397447,0.78539816339745,0.78539816339745,                133P    124
0.78539816339745,1.,0.707106781186551,1.,0.,13.11,12.7,              133P    125
8.673617379884D-18,12.86,12.7,0.25,12.86,12.7,                       133P    126
-0.785398163397447,0.78539816339745,0.,0.,0.;                        133P    127
126,1,1,0,0,1,0,-0.475,-0.475,1.425,1.425,1.,1.,0.,14.5,0.,0.,       135P    128
14.5,19.,-0.475,1.425,0.,0.,0.;                                      135P    129
126,1,1,0,0,1,0,0.1,0.1,1.45,1.45,1.,1.,0.,1.,0.,0.,14.5,0.,0.1,     137P    130
1.45,0.,0.,0.;                                                       137P    131
126,1,1,0,0,1,0,-0.16,-0.16,1.11,1.11,1.,1.,0.,1.,12.7,0.,1.,0.,     139P    132
-0.16,1.11,0.,0.,0.;                                                 139P    133
126,1,1,0,0,1,0,-0.8205,-0.8205,0.3905,0.3905,1.,1.,0.,1.,12.7,      141P    134
0.,13.11,12.7,-0.8205,0.3905,0.,0.,0.;                               141P    135
126,8,2,0,1,0,0,-3.14159265358979,-3.14159265358979,                 143P    136
-3.14159265358979,-1.5707963267949,-1.5707963267949,0.,0.,           143P    137
1.5707963267949,1.5707963267949,3.14159265358979,                    143P    138
3.14159265358979,3.14159265358979,1.,0.707106781186547,1.,           143P    139
0.707106781186547,1.,0.707106781186547,1.,0.707106781186547,1.,      143P    140
0.,6.35,8.375,0.,8.375,8.375,0.,8.375,6.35,0.,8.375,4.325,0.,        143P    141
6.35,4.325,0.,4.325,4.325,0.,4.325,6.35,0.,4.325,8.375,0.,6.35,      143P    142
8.375,-3.14159265358979,3.14159265358979,0.,0.,0.;                   143P    143
126,2,2,0,0,0,0,-0.785398163397449,-0.785398163397449,               145P    144
-0.785398163397449,0.785398163397448,0.785398163397448,              145P    145
0.785398163397448,1.,0.707106781186547,1.,1.,                        145P    146
-2.77555756156289D-16,12.7,0.,-3.12250225675825D-16,12.7,0.,1.,      145P    147
12.7,-0.785398163397449,0.785398163397448,0.,0.,0.;                  145P    148
126,2,2,0,0,0,0,-0.785398163397448,-0.785398163397448,               147P    149
-0.785398163397448,0.785398163397449,0.785398163397449,              147P    150
0.785398163397449,1.,0.707106781186547,1.,0.,1.,0.,0.,               147P    151
-3.12250225675825D-16,0.,1.,-2.77555756156289D-16,0.,                147P    152
-0.785398163397448,0.785398163397449,0.,0.,0.;                       147P    153
126,1,1,0,0,1,0,-1.11,-1.11,0.16,0.16,1.,1.,1.,0.,0.,1.,0.,12.7,     149P    154
-1.11,0.16,0.,0.,0.;                                                 149P    155
126,1,1,0,0,1,0,0.1,0.1,0.8525,0.8525,1.,1.,1.,0.,0.,8.525,0.,       151P    156
0.,0.1,0.8525,0.,0.,0.;                                              151P    157
126,1,1,0,0,1,0,-0.16,-0.16,1.11,1.11,1.,1.,8.525,0.,12.7,8.525,     153P    158
0.,0.,-0.16,1.11,0.,0.,0.;                                           153P    159
126,1,1,0,0,1,0,0.1,0.1,0.8525,0.8525,1.,1.,1.,0.,12.7,8.525,0.,     155P    160
12.7,0.1,0.8525,0.,0.,0.;                                            155P    161
126,2,2,0,0,0,0,-0.785398163397448,-0.785398163397448,               157P    162
-0.785398163397448,0.785398163397449,0.785398163397449,              157P    163
0.785398163397449,1.,0.707106781186547,1.,2.,16.5,0.,                157P    164
-6.93889390390723D-17,16.5,0.,0.,14.5,0.,-0.785398163397448,         157P    165
0.785398163397449,0.,0.,0.;                                          157P    166
126,1,1,0,0,1,0,0.2,0.2,0.7525,0.7525,1.,1.,2.,16.5,0.,7.525,        159P    167
16.5,0.,0.2,0.7525,0.,0.,0.;                                         159P    168
126,2,2,0,0,0,0,-0.785398163397449,-0.785398163397449,               161P    169
-0.785398163397449,0.785398163397448,0.785398163397448,              161P    170
0.785398163397448,1.,0.707106781186547,1.,9.525,14.5,0.,9.525,       161P    171
16.5,0.,7.525,16.5,0.,-0.785398163397449,0.785398163397448,0.,       161P    172
0.,0.;                                                               161P    173
126,1,1,0,0,1,0,0.1,0.1,1.45,1.45,1.,1.,9.525,1.,0.,9.525,14.5,      163P    174
0.,0.1,1.45,0.,0.,0.;                                                163P    175
126,2,2,0,0,0,0,-0.785398163397448,-0.785398163397448,               165P    176
-0.785398163397448,0.785398163397449,0.785398163397449,              165P    177
0.785398163397449,1.,0.707106781186547,1.,8.525,                     165P    178
-2.77555756156289D-16,0.,9.525,-3.12250225675825D-16,0.,9.525,       165P    179
1.,0.,-0.785398163397448,0.785398163397449,0.,0.,0.;                 165P    180
126,8,2,0,1,0,0,-3.14159265358979,-3.14159265358979,                 167P    181
-3.14159265358979,-1.5707963267949,-1.5707963267949,0.,0.,           167P    182
1.5707963267949,1.5707963267949,3.14159265358979,                    167P    183
3.14159265358979,3.14159265358979,1.,0.70710678118655,1.,            167P    184
0.707106781186551,1.,0.707106781186551,1.,0.70710678118655,1.,       167P    185
3.325,14.6,0.,3.325,15.385,0.,2.54,15.385,0.,1.755,15.385,0.,        167P    186
1.755,14.6,0.,1.755,13.815,0.,2.54,13.815,0.,3.325,13.815,0.,        167P    187
3.325,14.6,0.,-3.14159265358979,3.14159265358979,0.,0.,0.;           167P    188
126,8,2,0,1,0,0,-3.14159265358979,-3.14159265358979,                 169P    189
-3.14159265358979,-1.5707963267949,-1.5707963267949,0.,0.,           169P    190
1.5707963267949,1.5707963267949,3.14159265358979,                    169P    191
3.14159265358979,3.14159265358979,1.,0.70710678118655,1.,            169P    192
0.70710678118655,1.,0.70710678118655,1.,0.70710678118655,1.,         169P    193
7.77,14.6,0.,7.77,15.385,0.,6.985,15.385,0.,6.2,15.385,0.,6.2,       169P    194
14.6,0.,6.2,13.815,0.,6.985,13.815,0.,7.77,13.815,0.,7.77,14.6,      169P    195
0.,-3.14159265358979,3.14159265358979,0.,0.,0.;                      169P    196
126,8,2,0,1,0,0,-3.14159265358979,-3.14159265358979,                 171P    197
-3.14159265358979,-1.5707963267949,-1.5707963267949,0.,0.,           171P    198
1.5707963267949,1.5707963267949,3.14159265358979,                    171P    199
3.14159265358979,3.14159265358979,1.,0.707106781186547,1.,           171P    200
0.707106781186547,1.,0.707106781186547,1.,0.707106781186547,1.,      171P    201
3.34,12.06,0.,3.34,12.86,0.,2.54,12.86,0.,1.74,12.86,0.,1.74,        171P    202
12.06,0.,1.74,11.26,0.,2.54,11.26,0.,3.34,11.26,0.,3.34,12.06,       171P    203
0.,-3.14159265358979,3.14159265358979,0.,0.,0.;                      171P    204
126,8,2,0,1,0,0,-3.14159265358979,-3.14159265358979,                 173P    205
-3.14159265358979,-1.5707963267949,-1.5707963267949,0.,0.,           173P    206
1.5707963267949,1.5707963267949,3.14159265358979,                    173P    207
3.14159265358979,3.14159265358979,1.,0.707106781186545,1.,           173P    208
0.707106781186545,1.,0.707106781186545,1.,0.707106781186545,1.,      173P    209
7.785,12.06,0.,7.785,12.86,0.,6.985,12.86,0.,6.185,12.86,0.,         173P    210
6.185,12.06,0.,6.185,11.26,0.,6.985,11.26,0.,7.785,11.26,0.,         173P    211
7.785,12.06,0.,-3.14159265358979,3.14159265358979,0.,0.,0.;          173P    212
126,1,1,0,0,1,0,-1.11,-1.11,0.16,0.16,1.,1.,9.525,1.,0.,9.525,       175P    213
1.,12.7,-1.11,0.16,0.,0.,0.;                                         175P    214
126,2,2,0,0,0,0,-0.785398163397449,-0.785398163397449,               177P    215
-0.785398163397449,0.785398163397448,0.785398163397448,              177P    216
0.785398163397448,1.,0.707106781186547,1.,9.525,1.,12.7,9.525,       177P    217
-3.12250225675825D-16,12.7,8.525,-2.77555756156289D-16,12.7,         177P    218
-0.785398163397449,0.785398163397448,0.,0.,0.;                       177P    219
126,1,1,0,0,1,0,-1.425,-1.425,0.475,0.475,1.,1.,2.,16.5,19.,2.,      179P    220
16.5,0.,-1.425,0.475,0.,0.,0.;                                       179P    221
126,1,1,0,0,1,0,-0.475,-0.475,1.425,1.425,1.,1.,7.525,16.5,0.,       181P    222
7.525,16.5,19.,-0.475,1.425,0.,0.,0.;                                181P    223
126,1,1,0,0,1,0,-1.425,-1.425,0.475,0.475,1.,1.,9.525,14.5,19.,      183P    224
9.525,14.5,0.,-1.425,0.475,0.,0.,0.;                                 183P    225
126,1,1,0,0,1,0,-0.3905,-0.3905,0.8205,0.8205,1.,1.,9.525,13.11,     185P    226
12.7,9.525,1.,12.7,-0.3905,0.8205,0.,0.,0.;                          185P    227
126,8,2,0,1,0,0,-3.14159265358979,-3.14159265358979,                 187P    228
-3.14159265358979,-1.5707963267949,-1.5707963267949,0.,0.,           187P    229
1.5707963267949,1.5707963267949,3.14159265358979,                    187P    230
3.14159265358979,3.14159265358979,1.,0.707106781186547,1.,           187P    231
0.707106781186547,1.,0.707106781186547,1.,0.707106781186547,1.,      187P    232
9.525,6.35,8.375,9.525,8.375,8.375,9.525,8.375,6.35,9.525,8.375,     187P    233
4.325,9.525,6.35,4.325,9.525,4.325,4.325,9.525,4.325,6.35,9.525,     187P    234
4.325,8.375,9.525,6.35,8.375,-3.14159265358979,3.14159265358979,     187P    235
0.,0.,0.;                                                            187P    236
126,1,1,0,0,1,0,0.,0.,24.2038216560509,24.2038216560509,1.,1.,       189P    237
3.325,14.6,0.,3.325,14.6,19.,0.,24.2038216560509,0.,0.,0.;           189P    238
126,1,1,0,0,1,0,0.,0.,24.2038216560509,24.2038216560509,1.,1.,       191P    239
7.77,14.6,0.,7.77,14.6,19.,0.,24.2038216560509,0.,0.,0.;             191P    240
126,1,1,0,0,1,0,0.,0.,15.875,15.875,1.,1.,3.34,12.06,0.,3.34,        193P    241
12.06,12.7,0.,15.875,0.,0.,0.;                                       193P    242
126,2,2,0,0,0,0,3.14159265358979,3.14159265358979,                   195P    243
3.14159265358979,4.71238898038469,4.71238898038469,                  195P    244
4.71238898038469,1.,0.707106781186547,1.,3.34,12.06,12.7,3.34,       195P    245
12.86,12.7,2.54,12.86,12.7,3.14159265358979,4.71238898038469,0.,     195P    246
0.,0.;                                                               195P    247
126,6,2,0,0,0,0,-1.5707963267949,-1.5707963267949,                   197P    248
-1.5707963267949,0.,0.,1.5707963267949,1.5707963267949,              197P    249
3.14159265358979,3.14159265358979,3.14159265358979,1.,               197P    250
0.707106781186547,1.,0.707106781186547,1.,0.707106781186547,1.,      197P    251
2.54,12.86,12.7,1.74,12.86,12.7,1.74,12.06,12.7,1.74,11.26,12.7,     197P    252
2.54,11.26,12.7,3.34,11.26,12.7,3.34,12.06,12.7,                     197P    253
-1.5707963267949,3.14159265358979,0.,0.,0.;                          197P    254
126,1,1,0,0,1,0,0.,0.,15.875,15.875,1.,1.,7.785,12.06,0.,7.785,      199P    255
12.06,12.7,0.,15.875,0.,0.,0.;                                       199P    256
126,2,2,0,0,0,0,3.14159265358979,3.14159265358979,                   201P    257
3.14159265358979,4.71238898038469,4.71238898038469,                  201P    258
4.71238898038469,1.,0.707106781186545,1.,7.785,12.06,12.7,7.785,     201P    259
12.86,12.7,6.985,12.86,12.7,3.14159265358979,4.71238898038469,       201P    260
0.,0.,0.;                                                            201P    261
126,6,2,0,0,0,0,-1.5707963267949,-1.5707963267949,                   203P    262
-1.5707963267949,0.,0.,1.5707963267949,1.5707963267949,              203P    263
3.14159265358979,3.14159265358979,3.14159265358979,1.,               203P    264
0.707106781186545,1.,0.707106781186545,1.,0.707106781186545,1.,      203P    265
6.985,12.86,12.7,6.185,12.86,12.7,6.185,12.06,12.7,6.185,11.26,      203P    266
12.7,6.985,11.26,12.7,7.785,11.26,12.7,7.785,12.06,12.7,             203P    267
-1.5707963267949,3.14159265358979,0.,0.,0.;                          203P    268
126,1,1,0,0,1,0,-4.7037037037037,-4.7037037037037,0.,0.,1.,1.,       205P    269
9.525,6.35,8.375,0.,6.35,8.375,-4.7037037037037,0.,0.,0.,0.;         205P    270
128,1,2,1,2,0,0,0,0,0,-19.,-19.,6.19999999999999,                    207P    271
6.19999999999999,-0.785398163397444,-0.785398163397444,              207P    272
-0.785398163397444,0.785398163397453,0.785398163397453,              207P    273
0.785398163397453,1.,1.,0.707106781186547,0.707106781186547,1.,      207P    274
1.,9.525,13.11,12.7,9.525,13.11,19.,9.525,12.86,12.7,9.525,          207P    275
12.86,19.,9.275,12.86,12.7,9.275,12.86,19.,-19.,                     207P    276
6.19999999999999,-0.785398163397444,0.785398163397453;               207P    277
128,1,1,1,1,0,0,1,0,0,-0.631,-0.631,0.00100000000000011,             209P    278
0.00100000000000011,0.024,0.024,0.9285,0.9285,1.,1.,1.,1.,0.24,      209P    279
12.86,19.01,0.24,12.86,12.69,9.285,12.86,19.01,9.285,12.86,          209P    280
12.69,-0.631,0.00100000000000011,0.024,0.9285;                       209P    281
128,1,1,1,1,0,0,1,0,0,-0.001,-0.001,0.365,0.365,                     211P    282
-0.00100000000000001,-0.00100000000000001,0.9535,0.9535,1.,1.,       211P    283
1.,1.,-0.0100000000000001,16.51,19.,-0.0100000000000001,12.85,       211P    284
19.,9.535,16.51,19.,9.535,12.85,19.,-0.001,0.365,                    211P    285
-0.00100000000000001,0.9535;                                         211P    286
128,1,2,1,2,0,0,0,0,0,-6.19999999999999,-6.19999999999999,19.,       213P    287
19.,-0.785398163397447,-0.785398163397447,-0.785398163397447,        213P    288
0.78539816339745,0.78539816339745,0.78539816339745,1.,1.,            213P    289
0.707106781186548,0.707106781186548,1.,1.,3.46944695195361D-17,      213P    290
13.11,19.,3.46944695195361D-17,13.11,12.7,-4.16333634234434D-16,     213P    291
12.86,19.,-4.16333634234434D-16,12.86,12.7,0.25,12.86,19.,0.25,      213P    292
12.86,12.7,-6.19999999999999,19.,-0.785398163397447,                 213P    293
0.78539816339745;                                                    213P    294
128,1,1,1,1,0,0,1,0,0,-0.951,-0.951,0.951,0.951,-0.726,-0.726,       215P    295
0.626,0.626,1.,1.,1.,1.,0.,0.99,-0.0100000000000011,0.,0.99,         215P    296
19.01,0.,14.51,-0.0100000000000011,0.,14.51,19.01,-0.951,0.951,      215P    297
-0.726,0.626;                                                        215P    298
128,1,2,1,2,0,0,0,0,0,-11.1,-11.1,1.6,1.6,-0.785398163397448,        217P    299
-0.785398163397448,-0.785398163397448,0.785398163397449,             217P    300
0.785398163397449,0.785398163397449,1.,1.,0.707106781186548,         217P    301
0.707106781186548,1.,1.,0.,1.,12.7,0.,1.,0.,0.,                      217P    302
1.38777878078145D-16,12.7,0.,1.38777878078145D-16,0.,1.,             217P    303
-1.38777878078145D-16,12.7,1.,-1.38777878078145D-16,0.,-11.1,        217P    304
1.6,-0.785398163397448,0.785398163397449;                            217P    305
128,1,1,1,1,0,0,1,0,0,-0.001,-0.001,1.271,1.271,0.099,0.099,         219P    306
0.8535,0.8535,1.,1.,1.,1.,0.99,0.,12.71,0.99,0.,                     219P    307
-0.0099999999999989,8.535,0.,12.71,8.535,0.,-0.0099999999999989,     219P    308
-0.001,1.271,0.099,0.8535;                                           219P    309
128,1,1,1,1,0,0,1,0,0,-0.00100000000000003,-0.00100000000000003,     221P    310
1.651,1.651,-0.00100000000000001,-0.00100000000000001,0.9535,        221P    311
0.9535,1.,1.,1.,1.,-0.0100000000000001,-0.0100000000000003,0.,       221P    312
-0.0100000000000001,16.51,0.,9.535,-0.0100000000000003,0.,9.535,     221P    313
16.51,0.,-0.00100000000000003,1.651,-0.00100000000000001,0.9535;     221P    314
128,1,2,1,2,0,0,0,0,0,-1.6,-1.6,11.1,11.1,-0.785398163397449,        223P    315
-0.785398163397449,-0.785398163397449,0.785398163397448,             223P    316
0.785398163397448,0.785398163397448,1.,1.,0.707106781186548,         223P    317
0.707106781186548,1.,1.,9.525,1.,0.,9.525,1.,12.7,9.525,             223P    318
-6.93889390390723D-16,0.,9.525,-6.93889390390723D-16,12.7,8.525,     223P    319
-3.46944695195361D-16,0.,8.525,-3.46944695195361D-16,12.7,-1.6,      223P    320
11.1,-0.785398163397449,0.785398163397448;                           223P    321
128,1,2,1,2,0,0,0,0,0,-2.375,-2.375,7.125,7.125,                     225P    322
-0.785398163397448,-0.785398163397448,-0.785398163397448,            225P    323
0.785398163397449,0.785398163397449,0.785398163397449,1.,1.,         225P    324
0.707106781186547,0.707106781186547,1.,1.,2.,16.5,19.,2.,16.5,       225P    325
5.55111512312578D-16,5.55111512312578D-16,16.5,19.,                  225P    326
5.55111512312578D-16,16.5,5.55111512312578D-16,                      225P    327
-8.32667268468867D-16,14.5,19.,-8.32667268468867D-16,14.5,           225P    328
5.55111512312578D-16,-2.375,7.125,-0.785398163397448,                225P    329
0.785398163397449;                                                   225P    330
128,1,1,1,1,0,0,1,0,0,-0.00100000000000011,-0.00100000000000011,     227P    331
1.901,1.901,0.199,0.199,0.7535,0.7535,1.,1.,1.,1.,1.99,16.5,         227P    332
-0.0100000000000011,1.99,16.5,19.01,7.535,16.5,                      227P    333
-0.0100000000000011,7.535,16.5,19.01,-0.00100000000000011,1.901,     227P    334
0.199,0.7535;                                                        227P    335
128,1,2,1,2,0,0,0,0,0,-2.375,-2.375,7.125,7.125,                     229P    336
-0.785398163397449,-0.785398163397449,-0.785398163397449,            229P    337
0.785398163397448,0.785398163397448,0.785398163397448,1.,1.,         229P    338
0.707106781186548,0.707106781186548,1.,1.,9.525,14.5,19.,9.525,      229P    339
14.5,0.,9.525,16.5,19.,9.525,16.5,0.,7.525,16.5,19.,7.525,16.5,      229P    340
0.,-2.375,7.125,-0.785398163397449,0.785398163397448;                229P    341
128,1,1,1,1,0,0,1,0,0,-0.951,-0.951,0.951,0.951,-0.726,-0.726,       231P    342
0.626,0.626,1.,1.,1.,1.,9.525,0.99,19.01,9.525,0.99,-0.01,9.525,     231P    343
14.51,19.01,9.525,14.51,-0.0099999999999989,-0.951,0.951,-0.726,     231P    344
0.626;                                                               231P    345
128,1,8,1,2,0,1,0,0,1,0.,0.,24.2038216560509,24.2038216560509,       233P    346
-3.14159265358979,-3.14159265358979,-3.14159265358979,               233P    347
-1.5707963267949,-1.5707963267949,0.,0.,1.5707963267949,             233P    348
1.5707963267949,3.14159265358979,3.14159265358979,                   233P    349
3.14159265358979,1.,1.,0.707106781186548,0.707106781186548,1.,       233P    350
1.,0.707106781186548,0.707106781186548,1.,1.,0.707106781186548,      233P    351
0.707106781186548,1.,1.,0.707106781186548,0.707106781186548,1.,      233P    352
1.,3.325,14.6,0.,3.325,14.6,19.,3.325,15.385,0.,3.325,15.385,        233P    353
19.,2.54,15.385,0.,2.54,15.385,19.,1.755,15.385,0.,1.755,15.385,     233P    354
19.,1.755,14.6,0.,1.755,14.6,19.,1.755,13.815,0.,1.755,13.815,       233P    355
19.,2.54,13.815,0.,2.54,13.815,19.,3.325,13.815,0.,3.325,13.815,     233P    356
19.,3.325,14.6,0.,3.325,14.6,19.,0.,24.2038216560509,                233P    357
-3.14159265358979,3.14159265358979;                                  233P    358
128,1,8,1,2,0,1,0,0,1,0.,0.,24.2038216560509,24.2038216560509,       235P    359
-3.14159265358979,-3.14159265358979,-3.14159265358979,               235P    360
-1.5707963267949,-1.5707963267949,0.,0.,1.5707963267949,             235P    361
1.5707963267949,3.14159265358979,3.14159265358979,                   235P    362
3.14159265358979,1.,1.,0.707106781186548,0.707106781186548,1.,       235P    363
1.,0.707106781186548,0.707106781186548,1.,1.,0.707106781186548,      235P    364
0.707106781186548,1.,1.,0.707106781186548,0.707106781186548,1.,      235P    365
1.,7.77,14.6,0.,7.77,14.6,19.,7.77,15.385,0.,7.77,15.385,19.,        235P    366
6.985,15.385,0.,6.985,15.385,19.,6.2,15.385,0.,6.2,15.385,19.,       235P    367
6.2,14.6,0.,6.2,14.6,19.,6.2,13.815,0.,6.2,13.815,19.,6.985,         235P    368
13.815,0.,6.985,13.815,19.,7.77,13.815,0.,7.77,13.815,19.,7.77,      235P    369
14.6,0.,7.77,14.6,19.,0.,24.2038216560509,-3.14159265358979,         235P    370
3.14159265358979;                                                    235P    371
128,1,8,1,2,0,1,0,0,1,0.,0.,15.875,15.875,-3.14159265358979,         237P    372
-3.14159265358979,-3.14159265358979,-1.5707963267949,                237P    373
-1.5707963267949,0.,0.,1.5707963267949,1.5707963267949,              237P    374
3.14159265358979,3.14159265358979,3.14159265358979,1.,1.,            237P    375
0.707106781186548,0.707106781186548,1.,1.,0.707106781186548,         237P    376
0.707106781186548,1.,1.,0.707106781186548,0.707106781186548,1.,      237P    377
1.,0.707106781186548,0.707106781186548,1.,1.,3.34,12.06,0.,3.34,     237P    378
12.06,12.7,3.34,12.86,0.,3.34,12.86,12.7,2.54,12.86,0.,2.54,         237P    379
12.86,12.7,1.74,12.86,0.,1.74,12.86,12.7,1.74,12.06,0.,1.74,         237P    380
12.06,12.7,1.74,11.26,0.,1.74,11.26,12.7,2.54,11.26,0.,2.54,         237P    381
11.26,12.7,3.34,11.26,0.,3.34,11.26,12.7,3.34,12.06,0.,3.34,         237P    382
12.06,12.7,0.,15.875,-3.14159265358979,3.14159265358979;             237P    383
128,1,8,1,2,0,1,0,0,1,0.,0.,15.875,15.875,-3.14159265358979,         239P    384
-3.14159265358979,-3.14159265358979,-1.5707963267949,                239P    385
-1.5707963267949,0.,0.,1.5707963267949,1.5707963267949,              239P    386
3.14159265358979,3.14159265358979,3.14159265358979,1.,1.,            239P    387
0.707106781186548,0.707106781186548,1.,1.,0.707106781186548,         239P    388
0.707106781186548,1.,1.,0.707106781186548,0.707106781186548,1.,      239P    389
1.,0.707106781186548,0.707106781186548,1.,1.,7.785,12.06,0.,         239P    390
7.785,12.06,12.7,7.785,12.86,0.,7.785,12.86,12.7,6.985,12.86,0.,     239P    391
6.985,12.86,12.7,6.185,12.86,0.,6.185,12.86,12.7,6.185,12.06,0.,     239P    392
6.185,12.06,12.7,6.185,11.26,0.,6.185,11.26,12.7,6.985,11.26,0.,     239P    393
6.985,11.26,12.7,7.785,11.26,0.,7.785,11.26,12.7,7.785,12.06,0.,     239P    394
7.785,12.06,12.7,0.,15.875,-3.14159265358979,3.14159265358979;       239P    395
128,1,8,1,2,0,1,0,0,1,0.,0.,4.7037037037037,4.7037037037037,         241P    396
-3.14159265358979,-3.14159265358979,-3.14159265358979,               241P    397
-1.5707963267949,-1.5707963267949,0.,0.,1.5707963267949,             241P    398
1.5707963267949,3.14159265358979,3.14159265358979,                   241P    399
3.14159265358979,1.,1.,0.707106781186548,0.707106781186548,1.,       241P    400
1.,0.707106781186548,0.707106781186548,1.,1.,0.707106781186548,      241P    401
0.707106781186548,1.,1.,0.707106781186548,0.707106781186548,1.,      241P    402
1.,0.,6.35,8.375,9.525,6.35,8.375,0.,4.325,8.375,9.525,4.325,        241P    403
8.375,0.,4.325,6.35,9.525,4.325,6.35,0.,4.325,4.325,9.525,4.325,     241P    404
4.325,0.,6.35,4.325,9.525,6.35,4.325,0.,8.375,4.325,9.525,8.375,     241P    405
4.325,0.,8.375,6.35,9.525,8.375,6.35,0.,8.375,8.375,9.525,8.375,     241P    406
8.375,0.,6.35,8.375,9.525,6.35,8.375,0.,4.7037037037037,             241P    407
-3.14159265358979,3.14159265358979;                                  241P    408
128,1,1,1,1,0,0,1,0,0,-0.296,-0.296,1.017,1.017,-0.001,-0.001,       243P    409
0.9535,0.9535,1.,1.,1.,1.,-0.01,13.12,12.7,-0.01,                    243P    410
-0.0099999999999989,12.7,9.535,13.12,12.7,9.535,                     243P    411
-0.0099999999999989,12.7,-0.296,1.017,-0.001,0.9535;                 243P    412
502,36,9.525,13.11,19.,9.275,12.86,19.,9.275,12.86,12.7,9.525,       245P    413
13.11,12.7,0.25,12.86,19.,0.25,12.86,12.7,2.54,12.86,12.7,6.985,     245P    414
12.86,12.7,9.525,14.5,19.,7.525,16.5,19.,2.,16.5,19.,0.,14.5,        245P    415
19.,0.,13.11,19.,7.77,14.6,19.,3.325,14.6,19.,0.,13.11,12.7,0.,      245P    416
14.5,0.,0.,1.,0.,0.,1.,12.7,0.,6.35,8.375,1.,0.,12.7,1.,0.,0.,       245P    417
8.525,0.,0.,8.525,0.,12.7,2.,16.5,0.,7.525,16.5,0.,9.525,14.5,       245P    418
0.,9.525,1.,0.,3.325,14.6,0.,7.77,14.6,0.,3.34,12.06,0.,7.785,       245P    419
12.06,0.,9.525,1.,12.7,9.525,6.35,8.375,3.34,12.06,12.7,7.785,       245P    420
12.06,12.7;                                                          245P    421
504,55,97,245,1,245,2,99,245,2,245,3,101,245,3,245,4,103,245,4,      247P    422
245,1,105,245,5,245,2,107,245,6,245,5,109,245,7,245,6,111,245,8,     247P    423
245,7,113,245,3,245,8,115,245,9,245,1,117,245,10,245,9,119,245,      247P    424
11,245,10,121,245,12,245,11,123,245,12,245,13,125,245,5,245,13,      247P    425
127,245,14,245,14,129,245,15,245,15,131,245,13,245,16,133,245,       247P    426
16,245,6,135,245,17,245,12,137,245,18,245,17,139,245,19,245,18,      247P    427
141,245,19,245,16,143,245,20,245,20,145,245,21,245,19,147,245,       247P    428
18,245,22,149,245,22,245,21,151,245,22,245,23,153,245,24,245,23,     247P    429
155,245,21,245,24,157,245,25,245,17,159,245,25,245,26,161,245,       247P    430
27,245,26,163,245,28,245,27,165,245,23,245,28,167,245,29,245,29,     247P    431
169,245,30,245,30,171,245,31,245,31,173,245,32,245,32,175,245,       247P    432
28,245,33,177,245,33,245,24,179,245,11,245,25,181,245,26,245,10,     247P    433
183,245,9,245,27,185,245,4,245,33,187,245,34,245,34,189,245,29,      247P    434
245,15,191,245,30,245,14,193,245,31,245,35,195,245,35,245,7,197,     247P    435
245,7,245,35,199,245,32,245,36,201,245,36,245,8,203,245,8,245,       247P    436
36,205,245,34,245,20;                                                247P    437
406,1,5HBody1;                                                       249P    438
314,62.7450980392157,62.7450980392157,62.7450980392157,13HSteel      251P    439
- Satin;                                                             251P    440
S      1G      3D    252P    440                                        T      1
