                                                                        S      1
,,14Hpole brace3 v4,14Hpole brace3 v4,7Hunknown,7Hunknown,32,38,7,99,15,G      1
,1.,2,2HMM,1,0.08,15H20210113.133159,0.01,10000.,7Hunknown,7Hunknown,11,G      2
0,15H20190820.211927;                                                   G      3
     186       1                                                00000000D      1
     186            -135       1       0                               0D      2
     514       2                                                00010000D      3
     514                       1       1                               0D      4
     510       3                                                00010000D      5
     510            -135       1       1                               0D      6
     510       4                                                00010000D      7
     510            -135       1       1                               0D      8
     510       5                                                00010000D      9
     510            -135       1       1                               0D     10
     510       6                                                00010000D     11
     510            -135       1       1                               0D     12
     510       7                                                00010000D     13
     510            -135       1       1                               0D     14
     510       8                                                00010000D     15
     510            -135       1       1                               0D     16
     510       9                                                00010000D     17
     510            -135       1       1                               0D     18
     510      10                                                00010000D     19
     510            -135       1       1                               0D     20
     510      11                                                00010000D     21
     510            -135       1       1                               0D     22
     510      12                                                00010000D     23
     510            -135       1       1                               0D     24
     510      13                                                00010000D     25
     510            -135       1       1                               0D     26
     510      14                                                00010000D     27
     510            -135       1       1                               0D     28
     508      15                                                00010000D     29
     508                       1       1                               0D     30
     508      16                                                00010000D     31
     508                       1       1                               0D     32
     508      17                                                00010000D     33
     508                       1       1                               0D     34
     508      18                                                00010000D     35
     508                       1       1                               0D     36
     508      19                                                00010000D     37
     508                       1       1                               0D     38
     508      20                                                00010000D     39
     508                       1       1                               0D     40
     508      21                                                00010000D     41
     508                       1       1                               0D     42
     508      22                                                00010000D     43
     508                       1       1                               0D     44
     508      23                                                00010000D     45
     508                       1       1                               0D     46
     508      24                                                00010000D     47
     508                       1       1                               0D     48
     508      25                                                00010000D     49
     508                       2       1                               0D     50
     508      27                                                00010000D     51
     508                       1       1                               0D     52
     508      28                                                00010000D     53
     508                       1       1                               0D     54
     508      29                                                00010000D     55
     508                       2       1                               0D     56
     126      31                                                00010000D     57
     126       0              12       0                               0D     58
     126      43                                                00010000D     59
     126       0               3       0                               0D     60
     126      46                                                00010000D     61
     126       0              12       0                               0D     62
     126      58                                                00010000D     63
     126       0              10       0                               0D     64
     126      68                                                00010000D     65
     126       0               3       0                               0D     66
     126      71                                                00010000D     67
     126       0              10       0                               0D     68
     126      81                                                00010000D     69
     126       0               6       0                               0D     70
     126      87                                                00010000D     71
     126       0               3       0                               0D     72
     126      90                                                00010000D     73
     126       0               6       0                               0D     74
     126      96                                                00010000D     75
     126       0               3       0                               0D     76
     126      99                                                00010000D     77
     126       0               3       0                               0D     78
     126     102                                                00010000D     79
     126       0               3       0                               0D     80
     126     105                                                00010000D     81
     126       0               3       0                               0D     82
     126     108                                                00010000D     83
     126       0               6       0                               0D     84
     126     114                                                00010000D     85
     126       0               3       0                               0D     86
     126     117                                                00010000D     87
     126       0               6       0                               0D     88
     126     123                                                00010000D     89
     126       0               3       0                               0D     90
     126     126                                                00010000D     91
     126       0              13       0                               0D     92
     126     139                                                00010000D     93
     126       0              13       0                               0D     94
     126     152                                                00010000D     95
     126       0               3       0                               0D     96
     126     155                                                00010000D     97
     126       0               3       0                               0D     98
     126     158                                                00010000D     99
     126       0               3       0                               0D    100
     126     161                                                00010000D    101
     126       0               7       0                               0D    102
     126     168                                                00010000D    103
     126       0               7       0                               0D    104
     128     175                                                00010000D    105
     128       0    -135      20       0                               0D    106
     128     195                                                00010000D    107
     128       0    -135       7       0                               0D    108
     128     202                                                00010000D    109
     128       0    -135      14       0                               0D    110
     128     216                                                00010000D    111
     128       0    -135       4       0                               0D    112
     128     220                                                00010000D    113
     128       0    -135       8       0                               0D    114
     128     228                                                00010000D    115
     128       0    -135       6       0                               0D    116
     128     234                                                00010000D    117
     128       0    -135       8       0                               0D    118
     128     242                                                00010000D    119
     128       0    -135      21       0                               0D    120
     128     263                                                00010000D    121
     128       0    -135       6       0                               0D    122
     128     269                                                00010000D    123
     128       0    -135      11       0                               0D    124
     128     280                                                00010000D    125
     128       0    -135       7       0                               0D    126
     128     287                                                00010000D    127
     128       0    -135       7       0                               0D    128
     502     294                                                00010000D    129
     502                      11       1                               0D    130
     504     305                                                00010001D    131
     504                       7       1                               0D    132
     406     312                                                00000000D    133
     406                       1      15                               0D    134
     314     313                                                00000200D    135
     314                       2       0                               0D    136
186,3,1,0,0,1,133;                                                     1P      1
514,12,5,1,7,1,9,1,11,1,13,1,15,1,17,1,19,1,21,1,23,1,25,1,27,1;       3P      2
510,105,1,1,29;                                                        5P      3
510,107,1,1,31;                                                        7P      4
510,109,1,1,33;                                                        9P      5
510,111,1,1,35;                                                       11P      6
510,113,1,1,37;                                                       13P      7
510,115,1,1,39;                                                       15P      8
510,117,1,1,41;                                                       17P      9
510,119,1,1,43;                                                       19P     10
510,121,1,1,45;                                                       21P     11
510,123,1,1,47;                                                       23P     12
510,125,3,1,49,51,53;                                                 25P     13
510,127,1,1,55;                                                       27P     14
508,4,0,131,1,0,0,0,131,2,1,0,0,131,3,0,0,0,131,2,0,0;                29P     15
508,1,0,131,1,1,0;                                                    31P     16
508,4,0,131,4,0,0,0,131,5,1,0,0,131,6,0,0,0,131,5,0,0;                33P     17
508,1,0,131,4,1,0;                                                    35P     18
508,4,0,131,7,1,0,0,131,8,1,0,0,131,9,1,0,0,131,10,1,0;               37P     19
508,4,0,131,8,0,0,0,131,11,1,0,0,131,12,1,0,0,131,13,0,0;             39P     20
508,4,0,131,14,1,0,0,131,15,1,0,0,131,16,1,0,0,131,17,1,0;            41P     21
508,4,0,131,10,0,0,0,131,18,0,0,0,131,15,0,0,0,131,19,1,0;            43P     22
508,4,0,131,17,0,0,0,131,20,0,0,0,131,21,0,0,0,131,22,1,0;            45P     23
508,4,0,131,23,1,0,0,131,21,1,0,0,131,24,0,0,0,131,12,0,0;            47P     24
508,6,0,131,24,1,0,0,131,20,1,0,0,131,16,0,0,0,131,18,1,0,0,131,      49P     25
9,0,0,0,131,13,1,0;                                                   49P     26
508,1,0,131,3,1,0;                                                    51P     27
508,1,0,131,6,1,0;                                                    53P     28
508,6,0,131,23,0,0,0,131,11,0,0,0,131,7,0,0,0,131,19,0,0,0,131,       55P     29
14,0,0,0,131,22,0,0;                                                  55P     30
126,8,2,0,1,0,0,-3.14159265358979,-3.14159265358979,                  57P     31
-3.14159265358979,-1.5707963267949,-1.5707963267949,0.,0.,            57P     32
1.5707963267949,1.5707963267949,3.14159265358979,                     57P     33
3.14159265358979,3.14159265358979,1.,0.707106781186555,1.,            57P     34
0.707106781186555,1.,0.707106781186555,1.,0.707106781186555,1.,       57P     35
33.1999976261557,19.6,0.00770364217994489,33.1999976261557,19.6,      57P     36
0.807703642179946,33.9999976261557,19.6,0.807703642179946,            57P     37
34.7999976261557,19.6,0.807703642179946,34.7999976261557,19.6,        57P     38
0.00770364217994479,34.7999976261557,19.6,-0.792296357820056,         57P     39
33.9999976261557,19.6,-0.792296357820056,33.1999976261557,19.6,       57P     40
-0.792296357820056,33.1999976261557,19.6,0.00770364217994469,         57P     41
-3.14159265358979,3.14159265358979,0.,0.,0.;                          57P     42
126,1,1,0,0,1,0,-24.5,-24.5,-2.,-2.,1.,1.,33.1999976261557,19.6,      59P     43
0.00770364217994479,33.1999976261557,1.6,0.00770364217994479,         59P     44
-24.5,-2.,0.,0.,0.;                                                   59P     45
126,8,2,0,1,0,0,-3.14159265358979,-3.14159265358979,                  61P     46
-3.14159265358979,-1.5707963267949,-1.5707963267949,0.,0.,            61P     47
1.5707963267949,1.5707963267949,3.14159265358979,                     61P     48
3.14159265358979,3.14159265358979,1.,0.707106781186555,1.,            61P     49
0.707106781186555,1.,0.707106781186555,1.,0.707106781186555,1.,       61P     50
33.1999976261557,1.6,0.00770364217994469,33.1999976261557,1.6,        61P     51
-0.792296357820056,33.9999976261557,1.6,-0.792296357820056,           61P     52
34.7999976261557,1.6,-0.792296357820056,34.7999976261557,1.6,         61P     53
0.00770364217994479,34.7999976261557,1.6,0.807703642179946,           61P     54
33.9999976261557,1.6,0.807703642179946,33.1999976261557,1.6,          61P     55
0.807703642179946,33.1999976261557,1.6,0.00770364217994489,           61P     56
-3.14159265358979,3.14159265358979,0.,0.,0.;                          61P     57
126,8,2,0,1,0,0,-3.14159265358979,-3.14159265358979,                  63P     58
-3.14159265358979,-1.5707963267949,-1.5707963267949,0.,0.,            63P     59
1.5707963267949,1.5707963267949,3.14159265358979,                     63P     60
3.14159265358979,3.14159265358979,1.,0.707106781186547,1.,            63P     61
0.707106781186548,1.,0.707106781186548,1.,0.707106781186547,1.,       63P     62
-2.075,6.5,2.54114210823076D-16,-2.075,6.5,2.075,                     63P     63
1.27057105411538D-16,6.5,2.075,2.075,6.5,2.075,2.075,6.5,0.,          63P     64
2.075,6.5,-2.075,1.27057105411538D-16,6.5,-2.075,-2.075,6.5,          63P     65
-2.075,-2.075,6.5,-2.54114210823076D-16,-3.14159265358979,            63P     66
3.14159265358979,0.,0.,0.;                                            63P     67
126,1,1,0,0,1,0,-3.13253012048193,-3.13253012048193,                  65P     68
-0.771084337349398,-0.771084337349398,1.,1.,-2.075,6.5,0.,            65P     69
-2.075,1.6,0.,-3.13253012048193,-0.771084337349398,0.,0.,0.;          65P     70
126,8,2,0,1,0,0,-3.14159265358979,-3.14159265358979,                  67P     71
-3.14159265358979,-1.5707963267949,-1.5707963267949,0.,0.,            67P     72
1.5707963267949,1.5707963267949,3.14159265358979,                     67P     73
3.14159265358979,3.14159265358979,1.,0.707106781186547,1.,            67P     74
0.707106781186548,1.,0.707106781186548,1.,0.707106781186547,1.,       67P     75
-2.075,1.6,-2.54114210823076D-16,-2.075,1.6,-2.075,                   67P     76
1.27057105411538D-16,1.6,-2.075,2.075,1.6,-2.075,2.075,1.6,0.,        67P     77
2.075,1.6,2.075,1.27057105411538D-16,1.6,2.075,-2.075,1.6,2.075,      67P     78
-2.075,1.6,2.54114210823076D-16,-3.14159265358979,                    67P     79
3.14159265358979,0.,0.,0.;                                            67P     80
126,2,2,0,0,0,0,-0.53436802502625,-0.53436802502625,                  69P     81
-0.53436802502625,0.534368025026249,0.534368025026249,                69P     82
0.534368025026249,1.,0.860590664238461,1.,3.72552004067862,0.,        69P     83
2.04523847668236,4.2951066061118,0.,1.00770364217995,                 69P     84
5.47870594217444,0.,1.00770364217995,-0.53436802502625,               69P     85
0.534368025026249,0.,0.,0.;                                           69P     86
126,1,1,0,0,1,0,0.,0.,0.16,0.16,1.,1.,5.47870594217444,0.,            71P     87
1.00770364217994,5.47870594217444,1.6,1.00770364217994,0.,0.16,       71P     88
0.,0.,0.;                                                             71P     89
126,2,2,0,0,0,0,-0.534368025026249,-0.534368025026249,                73P     90
-0.534368025026249,0.53436802502625,0.53436802502625,                 73P     91
0.53436802502625,1.,0.860590664238461,1.,5.47870594217444,1.6,        73P     92
1.00770364217995,4.2951066061118,1.6,1.00770364217995,                73P     93
3.72552004067862,1.6,2.04523847668236,-0.534368025026249,             73P     94
0.53436802502625,0.,0.,0.;                                            73P     95
126,1,1,0,0,1,0,-0.16,-0.16,0.,0.,1.,1.,3.72552004067862,1.6,         75P     96
2.04523847668236,3.72552004067862,0.,2.04523847668236,-0.16,0.,       75P     97
0.,0.,0.;                                                             75P     98
126,1,1,0,0,1,0,0.547870831601877,0.547870831601877,3.4,3.4,1.,       77P     99
1.,5.47870594217444,0.,1.00770364217994,33.9999976261557,0.,          77P    100
1.00770364217995,0.547870831601877,3.4,0.,0.,0.;                      77P    101
126,1,1,0,0,1,0,0.,0.,0.16,0.16,1.,1.,33.9999976261557,0.,            79P    102
1.00770364217995,33.9999976261557,1.6,1.00770364217995,0.,0.16,       79P    103
0.,0.,0.;                                                             79P    104
126,1,1,0,0,1,0,0.547870831601877,0.547870831601877,3.4,3.4,1.,       81P    105
1.,5.47870594217444,1.6,1.00770364217994,33.9999976261557,1.6,        81P    106
1.00770364217995,0.547870831601877,3.4,0.,0.,0.;                      81P    107
126,2,2,0,0,0,0,-0.535773049298121,-0.535773049298121,                83P    108
-0.535773049298121,0.53577304929812,0.53577304929812,                 83P    109
0.53577304929812,1.,0.859874240005829,1.,5.48713609335297,0.,         83P    110
-0.992296357820056,4.29973939432584,0.,-0.992296357820056,            83P    111
3.73125254348002,0.,-2.03476152331764,-0.535773049298121,             83P    112
0.53577304929812,0.,0.,0.;                                            83P    113
126,1,1,0,0,1,0,0.,0.,0.16,0.16,1.,1.,3.73125254348002,0.,            85P    114
-2.03476152331764,3.73125254348002,1.6,-2.03476152331764,0.,          85P    115
0.16,0.,0.,0.;                                                        85P    116
126,2,2,0,0,0,0,-0.53577304929812,-0.53577304929812,                  87P    117
-0.53577304929812,0.535773049298121,0.535773049298121,                87P    118
0.535773049298121,1.,0.859874240005829,1.,3.73125254348002,1.6,       87P    119
-2.03476152331764,4.29973939432584,1.6,-0.992296357820056,            87P    120
5.48713609335297,1.6,-0.992296357820056,-0.53577304929812,            87P    121
0.535773049298121,0.,0.,0.;                                           87P    122
126,1,1,0,0,1,0,-0.16,-0.16,0.,0.,1.,1.,5.48713609335297,1.6,         89P    123
-0.992296357820056,5.48713609335297,0.,-0.992296357820056,-0.16,      89P    124
0.,0.,0.,0.;                                                          89P    125
126,8,2,0,0,0,0,0.499250228198655,0.499250228198655,                  91P    126
0.499250228198655,1.81971892875829,1.81971892875829,                  91P    127
3.14018762931792,3.14018762931792,4.46065632987756,                   91P    128
4.46065632987756,5.78112503043719,5.78112503043719,                   91P    129
5.78112503043719,1.,0.789848525699652,1.,0.789848525699652,1.,        91P    130
0.789848525699652,1.,0.789848525699651,1.,3.73125254348002,1.6,       91P    131
-2.03476152331764,2.15129991940084,1.6,-4.93200632552982,             91P    132
-1.04702962397746,1.6,-4.11900825035756,-4.24535916735575,1.6,        91P    133
-3.30601017518529,-4.24999580505263,1.6,-0.00597135119078382,         91P    134
-4.25463244274951,1.6,3.29406747280373,-1.05860008801472,1.6,         91P    135
4.11604978755788,2.13743226672007,1.6,4.93803210231203,               91P    136
3.72552004067862,1.6,2.04523847668237,0.499250228198655,              91P    137
5.78112503043719,0.,0.,0.;                                            91P    138
126,8,2,0,0,0,0,0.499250228198655,0.499250228198655,                  93P    139
0.499250228198655,1.81971892875829,1.81971892875829,                  93P    140
3.14018762931792,3.14018762931792,4.46065632987756,                   93P    141
4.46065632987756,5.78112503043719,5.78112503043719,                   93P    142
5.78112503043719,1.,0.789848525699652,1.,0.789848525699652,1.,        93P    143
0.789848525699652,1.,0.789848525699651,1.,3.73125254348002,0.,        93P    144
-2.03476152331764,2.15129991940084,0.,-4.93200632552982,              93P    145
-1.04702962397746,0.,-4.11900825035756,-4.24535916735575,0.,          93P    146
-3.30601017518529,-4.24999580505263,0.,-0.00597135119078382,          93P    147
-4.25463244274951,0.,3.29406747280373,-1.05860008801472,0.,           93P    148
4.11604978755788,2.13743226672007,0.,4.93803210231203,                93P    149
3.72552004067862,0.,2.04523847668237,0.499250228198655,               93P    150
5.78112503043719,0.,0.,0.;                                            93P    151
126,1,1,0,0,1,0,0.1,0.1,2.95128615328027,2.95128615328027,1.,1.,      95P    152
33.9999976261557,1.6,-0.992296357820057,5.48713609335297,1.6,         95P    153
-0.992296357820056,0.1,2.95128615328027,0.,0.,0.;                     95P    154
126,1,1,0,0,1,0,0.,0.,0.16,0.16,1.,1.,33.9999976261557,0.,            97P    155
-0.992296357820057,33.9999976261557,1.6,-0.992296357820057,0.,        97P    156
0.16,0.,0.,0.;                                                        97P    157
126,1,1,0,0,1,0,0.1,0.1,2.95128615328027,2.95128615328027,1.,1.,      99P    158
33.9999976261557,0.,-0.992296357820057,5.48713609335297,0.,           99P    159
-0.992296357820056,0.1,2.95128615328027,0.,0.,0.;                     99P    160
126,4,2,0,0,0,0,0.,0.,0.,1.5707963267949,1.5707963267949,            101P    161
3.14159265358979,3.14159265358979,3.14159265358979,1.,               101P    162
0.707106781186555,1.,0.707106781186554,1.,33.9999976261557,0.,       101P    163
1.00770364217995,34.9999976261557,0.,1.00770364217995,               101P    164
34.9999976261557,0.,0.00770364217994485,34.9999976261557,0.,         101P    165
-0.992296357820056,33.9999976261557,0.,-0.992296357820057,0.,        101P    166
3.14159265358979,0.,0.,0.;                                           101P    167
126,4,2,0,0,0,0,0.,0.,0.,1.5707963267949,1.5707963267949,            103P    168
3.14159265358979,3.14159265358979,3.14159265358979,1.,               103P    169
0.707106781186555,1.,0.707106781186554,1.,33.9999976261557,1.6,      103P    170
1.00770364217995,34.9999976261557,1.6,1.00770364217995,              103P    171
34.9999976261557,1.6,0.00770364217994485,34.9999976261557,1.6,       103P    172
-0.992296357820056,33.9999976261557,1.6,-0.992296357820057,0.,       103P    173
3.14159265358979,0.,0.,0.;                                           103P    174
128,1,8,1,2,0,1,0,0,1,2.,2.,24.5,24.5,-3.14159265358979,             105P    175
-3.14159265358979,-3.14159265358979,-1.5707963267949,                105P    176
-1.5707963267949,0.,0.,1.5707963267949,1.5707963267949,              105P    177
3.14159265358979,3.14159265358979,3.14159265358979,1.,1.,            105P    178
0.707106781186548,0.707106781186548,1.,1.,0.707106781186548,         105P    179
0.707106781186548,1.,1.,0.707106781186548,0.707106781186548,1.,      105P    180
1.,0.707106781186548,0.707106781186548,1.,1.,33.1999976261557,       105P    181
19.6,0.00770364217994479,33.1999976261557,1.6,                       105P    182
0.00770364217994479,33.1999976261557,19.6,0.807703642179945,         105P    183
33.1999976261557,1.6,0.807703642179945,33.9999976261557,19.6,        105P    184
0.807703642179946,33.9999976261557,1.6,0.807703642179946,            105P    185
34.7999976261557,19.6,0.807703642179945,34.7999976261557,1.6,        105P    186
0.807703642179945,34.7999976261557,19.6,0.00770364217994479,         105P    187
34.7999976261557,1.6,0.00770364217994479,34.7999976261557,19.6,      105P    188
-0.792296357820056,34.7999976261557,1.6,-0.792296357820056,          105P    189
33.9999976261557,19.6,-0.792296357820056,33.9999976261557,1.6,       105P    190
-0.792296357820056,33.1999976261557,19.6,-0.792296357820056,         105P    191
33.1999976261557,1.6,-0.792296357820056,33.1999976261557,19.6,       105P    192
0.00770364217994479,33.1999976261557,1.6,0.00770364217994479,2.,     105P    193
24.5,-3.14159265358979,3.14159265358979;                             105P    194
128,1,1,1,1,0,0,1,0,0,-0.0810000000000001,-0.0810000000000001,       107P    195
0.0810000000000001,0.0810000000000001,-0.0810000000000001,           107P    196
-0.0810000000000001,0.0810000000000001,0.0810000000000001,1.,1.,     107P    197
1.,1.,33.1899976261557,19.6,0.817703642179946,34.8099976261557,      107P    198
19.6,0.817703642179946,33.1899976261557,19.6,-0.802296357820056,     107P    199
34.8099976261557,19.6,-0.802296357820056,-0.0810000000000001,        107P    200
0.0810000000000001,-0.0810000000000001,0.0810000000000001;           107P    201
128,1,8,1,2,0,1,0,0,1,0.771084337349398,0.771084337349398,           109P    202
3.13253012048193,3.13253012048193,-3.14159265358979,                 109P    203
-3.14159265358979,-3.14159265358979,-1.5707963267949,                109P    204
-1.5707963267949,0.,0.,1.5707963267949,1.5707963267949,              109P    205
3.14159265358979,3.14159265358979,3.14159265358979,1.,1.,            109P    206
0.707106781186548,0.707106781186548,1.,1.,0.707106781186548,         109P    207
0.707106781186548,1.,1.,0.707106781186548,0.707106781186548,1.,      109P    208
1.,0.707106781186548,0.707106781186548,1.,1.,-2.075,6.5,0.,          109P    209
-2.075,1.6,0.,-2.075,6.5,2.075,-2.075,1.6,2.075,0.,6.5,2.075,0.,     109P    210
1.6,2.075,2.075,6.5,2.075,2.075,1.6,2.075,2.075,6.5,0.,2.075,        109P    211
1.6,0.,2.075,6.5,-2.075,2.075,1.6,-2.075,0.,6.5,-2.075,0.,1.6,       109P    212
-2.075,-2.075,6.5,-2.075,-2.075,1.6,-2.075,-2.075,6.5,0.,-2.075,     109P    213
1.6,0.,0.771084337349398,3.13253012048193,-3.14159265358979,         109P    214
3.14159265358979;                                                    109P    215
128,1,1,1,1,0,0,1,0,0,-0.2085,-0.2085,0.2085,0.2085,-0.2085,         111P    216
-0.2085,0.2085,0.2085,1.,1.,1.,1.,-2.085,6.5,2.085,2.085,6.5,        111P    217
2.085,-2.085,6.5,-2.085,2.085,6.5,-2.085,-0.2085,0.2085,-0.2085,     111P    218
0.2085;                                                              111P    219
128,1,2,1,2,0,0,0,0,0,0.,0.,0.8,0.8,-0.53436802502625,               113P    220
-0.53436802502625,-0.53436802502625,0.534368025026251,               113P    221
0.534368025026251,0.534368025026251,1.,1.,0.860590664238461,         113P    222
0.860590664238461,1.,1.,5.47870594217444,0.,1.00770364217995,        113P    223
5.47870594217444,1.6,1.00770364217995,4.2951066061118,0.,            113P    224
1.00770364217994,4.2951066061118,1.6,1.00770364217994,               113P    225
3.72552004067862,0.,2.04523847668236,3.72552004067862,1.6,           113P    226
2.04523847668236,0.,0.8,-0.53436802502625,0.534368025026251;         113P    227
128,1,1,1,1,0,0,1,0,0,0.133990062228622,0.133990062228622,           115P    228
2.98811923062674,2.98811923062674,-0.001,-0.001,0.161,0.161,1.,      115P    229
1.,1.,1.,5.46870594217444,-0.01,1.00770364217994,                    115P    230
34.0099976261557,-0.01,1.00770364217995,5.46870594217444,1.61,       115P    231
1.00770364217994,34.0099976261557,1.61,1.00770364217995,             115P    232
0.133990062228622,2.98811923062674,-0.001,0.161;                     115P    233
128,1,2,1,2,0,0,0,0,0,0.,0.,0.8,0.8,-0.53577304929812,               117P    234
-0.53577304929812,-0.53577304929812,0.535773049298121,               117P    235
0.535773049298121,0.535773049298121,1.,1.,0.85987424000583,          117P    236
0.85987424000583,1.,1.,3.73125254348002,0.,-2.03476152331764,        117P    237
3.73125254348002,1.6,-2.03476152331764,4.29973939432584,0.,          117P    238
-0.992296357820056,4.29973939432584,1.6,-0.992296357820056,          117P    239
5.48713609335297,0.,-0.992296357820056,5.48713609335297,1.6,         117P    240
-0.992296357820056,0.,0.8,-0.53577304929812,0.535773049298121;       117P    241
128,1,8,1,2,0,0,0,0,0,0.,0.,0.376470588235294,0.376470588235294,     119P    242
-5.78393507898093,-5.78393507898093,-5.78393507898093,               119P    243
-4.4634663784213,-4.4634663784213,-3.14299767786166,                 119P    244
-3.14299767786166,-1.82252897730203,-1.82252897730203,               119P    245
-0.502060276742397,-0.502060276742397,-0.502060276742397,1.,1.,      119P    246
0.789848525699652,0.789848525699652,1.,1.,0.789848525699652,         119P    247
0.789848525699652,1.,1.,0.789848525699652,0.789848525699652,1.,      119P    248
1.,0.789848525699652,0.789848525699652,1.,1.,3.73125254348002,       119P    249
1.6,-2.03476152331764,3.73125254348002,0.,-2.03476152331764,         119P    250
2.15129991940083,1.6,-4.93200632552982,2.15129991940083,0.,          119P    251
-4.93200632552982,-1.04702962397746,1.6,-4.11900825035756,           119P    252
-1.04702962397746,0.,-4.11900825035756,-4.24535916735575,1.6,        119P    253
-3.30601017518529,-4.24535916735575,0.,-3.30601017518529,            119P    254
-4.24999580505263,1.6,-0.00597135119078278,-4.24999580505263,0.,     119P    255
-0.00597135119078278,-4.25463244274951,1.6,3.29406747280373,         119P    256
-4.25463244274951,0.,3.29406747280373,-1.05860008801472,1.6,         119P    257
4.11604978755788,-1.05860008801472,0.,4.11604978755788,              119P    258
2.13743226672007,1.6,4.93803210231202,2.13743226672007,0.,           119P    259
4.93803210231202,3.72552004067862,1.6,2.04523847668236,              119P    260
3.72552004067862,0.,2.04523847668236,0.,0.376470588235294,           119P    261
-5.78393507898093,-0.502060276742397;                                119P    262
128,1,1,1,1,0,0,1,0,0,-0.001,-0.001,2.85228615328027,                121P    263
2.85228615328027,-0.001,-0.001,0.161,0.161,1.,1.,1.,1.,              121P    264
34.0099976261557,-0.01,-0.992296357820057,5.47713609335297,          121P    265
-0.01,-0.992296357820056,34.0099976261557,1.61,                      121P    266
-0.992296357820057,5.47713609335297,1.61,-0.992296357820056,         121P    267
-0.001,2.85228615328027,-0.001,0.161;                                121P    268
128,1,4,1,2,0,0,0,0,0,0.,0.,1.6,1.6,0.,0.,0.,1.5707963267949,        123P    269
1.5707963267949,3.14159265358979,3.14159265358979,                   123P    270
3.14159265358979,1.,1.,0.707106781186548,0.707106781186548,1.,       123P    271
1.,0.707106781186548,0.707106781186548,1.,1.,33.9999976261557,       123P    272
1.6,1.00770364217995,33.9999976261557,0.,1.00770364217995,           123P    273
34.9999976261557,1.6,1.00770364217995,34.9999976261557,0.,           123P    274
1.00770364217995,34.9999976261557,1.6,0.00770364217994479,           123P    275
34.9999976261557,0.,0.00770364217994479,34.9999976261557,1.6,        123P    276
-0.992296357820056,34.9999976261557,0.,-0.992296357820056,           123P    277
33.9999976261557,1.6,-0.992296357820057,33.9999976261557,0.,         123P    278
-0.992296357820057,0.,1.6,0.,3.14159265358979;                       123P    279
128,1,1,1,1,0,0,1,0,0,-1.96396312558273,-1.96396312558273,           125P    280
1.96349988130778,1.96349988130778,-0.494803210231203,                125P    281
-0.494803210231203,0.494200632552982,0.494200632552982,1.,1.,1.,     125P    282
1.,-4.26463244274951,1.6,4.94803210231203,35.0099976261557,1.6,      125P    283
4.94803210231203,-4.26463244274951,1.6,-4.94200632552982,            125P    284
35.0099976261557,1.6,-4.94200632552982,-1.96396312558273,            125P    285
1.96349988130778,-0.494803210231203,0.494200632552982;               125P    286
128,1,1,1,1,0,0,1,0,0,-1.96396312558273,-1.96396312558273,           127P    287
1.96349988130778,1.96349988130778,-0.494803210231203,                127P    288
-0.494803210231203,0.494200632552982,0.494200632552982,1.,1.,1.,     127P    289
1.,35.0099976261557,0.,4.94803210231203,-4.26463244274951,0.,        127P    290
4.94803210231203,35.0099976261557,0.,-4.94200632552982,              127P    291
-4.26463244274951,0.,-4.94200632552982,-1.96396312558273,            127P    292
1.96349988130778,-0.494803210231203,0.494200632552982;               127P    293
502,16,33.1999976261557,19.6,0.00770364217994489,                    129P    294
33.1999976261557,1.6,0.00770364217994489,-2.075,6.5,                 129P    295
2.54114210823076D-16,-2.075,1.6,2.53703308361608D-16,                129P    296
3.72552004067862,0.,2.04523847668236,5.47870594217444,0.,            129P    297
1.00770364217994,5.47870594217444,1.6,1.00770364217994,              129P    298
3.72552004067862,1.6,2.04523847668236,33.9999976261557,0.,           129P    299
1.00770364217995,33.9999976261557,1.6,1.00770364217995,              129P    300
5.48713609335297,0.,-0.992296357820056,3.73125254348002,0.,          129P    301
-2.03476152331764,3.73125254348002,1.6,-2.03476152331764,            129P    302
5.48713609335297,1.6,-0.992296357820056,33.9999976261557,1.6,        129P    303
-0.992296357820057,33.9999976261557,0.,-0.992296357820057;           129P    304
504,24,57,129,1,129,1,59,129,1,129,2,61,129,2,129,2,63,129,3,        131P    305
129,3,65,129,3,129,4,67,129,4,129,4,69,129,5,129,6,71,129,6,129,     131P    306
7,73,129,7,129,8,75,129,8,129,5,77,129,6,129,9,79,129,9,129,10,      131P    307
81,129,7,129,10,83,129,11,129,12,85,129,12,129,13,87,129,13,129,     131P    308
14,89,129,14,129,11,91,129,13,129,8,93,129,12,129,5,95,129,15,       131P    309
129,14,97,129,16,129,15,99,129,16,129,11,101,129,9,129,16,103,       131P    310
129,10,129,15;                                                       131P    311
406,1,5HBody3;                                                       133P    312
314,62.7450980392157,62.7450980392157,62.7450980392157,13HSteel      135P    313
- Satin;                                                             135P    314
S      1G      3D    136P    314                                        T      1
