                                                                        S      1
,,13Hmotor_fix3 v2,13Hmotor_fix3 v2,7Hunknown,7Hunknown,32,38,7,99,15,, G      1
1.,2,2HMM,1,0.08,15H20210113.132802,0.01,10000.,7Hunknown,7Hunknown,11, G      2
0,15H20200724.034254;                                                   G      3
     186       1                                                00000000D      1
     186            -247       1       0                               0D      2
     514       2                                                00010000D      3
     514                       2       1                               0D      4
     510       4                                                00010000D      5
     510            -247       1       1                               0D      6
     510       5                                                00010000D      7
     510            -247       1       1                               0D      8
     510       6                                                00010000D      9
     510            -247       1       1                               0D     10
     510       7                                                00010000D     11
     510            -247       1       1                               0D     12
     510       8                                                00010000D     13
     510            -247       1       1                               0D     14
     510       9                                                00010000D     15
     510            -247       1       1                               0D     16
     510      10                                                00010000D     17
     510            -247       1       1                               0D     18
     510      11                                                00010000D     19
     510            -247       1       1                               0D     20
     510      12                                                00010000D     21
     510            -247       1       1                               0D     22
     510      13                                                00010000D     23
     510            -247       1       1                               0D     24
     510      14                                                00010000D     25
     510            -247       1       1                               0D     26
     510      15                                                00010000D     27
     510            -247       1       1                               0D     28
     510      16                                                00010000D     29
     510            -247       1       1                               0D     30
     510      17                                                00010000D     31
     510            -247       1       1                               0D     32
     510      18                                                00010000D     33
     510            -247       1       1                               0D     34
     510      19                                                00010000D     35
     510            -247       1       1                               0D     36
     510      20                                                00010000D     37
     510            -247       1       1                               0D     38
     510      21                                                00010000D     39
     510            -247       1       1                               0D     40
     510      22                                                00010000D     41
     510            -247       1       1                               0D     42
     510      23                                                00010000D     43
     510            -247       1       1                               0D     44
     508      24                                                00010000D     45
     508                       1       1                               0D     46
     508      25                                                00010000D     47
     508                       1       1                               0D     48
     508      26                                                00010000D     49
     508                       1       1                               0D     50
     508      27                                                00010000D     51
     508                       1       1                               0D     52
     508      28                                                00010000D     53
     508                       1       1                               0D     54
     508      29                                                00010000D     55
     508                       1       1                               0D     56
     508      30                                                00010000D     57
     508                       1       1                               0D     58
     508      31                                                00010000D     59
     508                       1       1                               0D     60
     508      32                                                00010000D     61
     508                       1       1                               0D     62
     508      33                                                00010000D     63
     508                       1       1                               0D     64
     508      34                                                00010000D     65
     508                       1       1                               0D     66
     508      35                                                00010000D     67
     508                       1       1                               0D     68
     508      36                                                00010000D     69
     508                       1       1                               0D     70
     508      37                                                00010000D     71
     508                       1       1                               0D     72
     508      38                                                00010000D     73
     508                       1       1                               0D     74
     508      39                                                00010000D     75
     508                       1       1                               0D     76
     508      40                                                00010000D     77
     508                       1       1                               0D     78
     508      41                                                00010000D     79
     508                       1       1                               0D     80
     508      42                                                00010000D     81
     508                       1       1                               0D     82
     508      43                                                00010000D     83
     508                       1       1                               0D     84
     508      44                                                00010000D     85
     508                       1       1                               0D     86
     508      45                                                00010000D     87
     508                       1       1                               0D     88
     508      46                                                00010000D     89
     508                       4       1                               0D     90
     508      50                                                00010000D     91
     508                       4       1                               0D     92
     126      54                                                00010000D     93
     126       0               8       0                               0D     94
     126      62                                                00010000D     95
     126       0               2       0                               0D     96
     126      64                                                00010000D     97
     126       0               8       0                               0D     98
     126      72                                                00010000D     99
     126       0               8       0                               0D    100
     126      80                                                00010000D    101
     126       0               2       0                               0D    102
     126      82                                                00010000D    103
     126       0               8       0                               0D    104
     126      90                                                00010000D    105
     126       0               2       0                               0D    106
     126      92                                                00010000D    107
     126       0               2       0                               0D    108
     126      94                                                00010000D    109
     126       0               2       0                               0D    110
     126      96                                                00010000D    111
     126       0               2       0                               0D    112
     126      98                                                00010000D    113
     126       0               2       0                               0D    114
     126     100                                                00010000D    115
     126       0               2       0                               0D    116
     126     102                                                00010000D    117
     126       0               2       0                               0D    118
     126     104                                                00010000D    119
     126       0               2       0                               0D    120
     126     106                                                00010000D    121
     126       0               2       0                               0D    122
     126     108                                                00010000D    123
     126       0               2       0                               0D    124
     126     110                                                00010000D    125
     126       0               2       0                               0D    126
     126     112                                                00010000D    127
     126       0               2       0                               0D    128
     126     114                                                00010000D    129
     126       0               2       0                               0D    130
     126     116                                                00010000D    131
     126       0               2       0                               0D    132
     126     118                                                00010000D    133
     126       0               2       0                               0D    134
     126     120                                                00010000D    135
     126       0               2       0                               0D    136
     126     122                                                00010000D    137
     126       0               2       0                               0D    138
     126     124                                                00010000D    139
     126       0               2       0                               0D    140
     126     126                                                00010000D    141
     126       0               2       0                               0D    142
     126     128                                                00010000D    143
     126       0               2       0                               0D    144
     126     130                                                00010000D    145
     126       0               2       0                               0D    146
     126     132                                                00010000D    147
     126       0               2       0                               0D    148
     126     134                                                00010000D    149
     126       0               2       0                               0D    150
     126     136                                                00010000D    151
     126       0               2       0                               0D    152
     126     138                                                00010000D    153
     126       0               2       0                               0D    154
     126     140                                                00010000D    155
     126       0               2       0                               0D    156
     126     142                                                00010000D    157
     126       0               2       0                               0D    158
     126     144                                                00010000D    159
     126       0               2       0                               0D    160
     126     146                                                00010000D    161
     126       0               2       0                               0D    162
     126     148                                                00010000D    163
     126       0               2       0                               0D    164
     126     150                                                00010000D    165
     126       0               2       0                               0D    166
     126     152                                                00010000D    167
     126       0               2       0                               0D    168
     126     154                                                00010000D    169
     126       0               2       0                               0D    170
     126     156                                                00010000D    171
     126       0               2       0                               0D    172
     126     158                                                00010000D    173
     126       0               2       0                               0D    174
     126     160                                                00010000D    175
     126       0               2       0                               0D    176
     126     162                                                00010000D    177
     126       0               2       0                               0D    178
     126     164                                                00010000D    179
     126       0               2       0                               0D    180
     126     166                                                00010000D    181
     126       0               2       0                               0D    182
     126     168                                                00010000D    183
     126       0               2       0                               0D    184
     126     170                                                00010000D    185
     126       0               3       0                               0D    186
     126     173                                                00010000D    187
     126       0               3       0                               0D    188
     126     176                                                00010000D    189
     126       0               2       0                               0D    190
     126     178                                                00010000D    191
     126       0               2       0                               0D    192
     126     180                                                00010000D    193
     126       0               2       0                               0D    194
     126     182                                                00010000D    195
     126       0               2       0                               0D    196
     126     184                                                00010000D    197
     126       0               2       0                               0D    198
     126     186                                                00010000D    199
     126       0               2       0                               0D    200
     128     188                                                00010000D    201
     128       0    -247      12       0                               0D    202
     128     200                                                00010000D    203
     128       0    -247      12       0                               0D    204
     128     212                                                00010000D    205
     128       0    -247       4       0                               0D    206
     128     216                                                00010000D    207
     128       0    -247       4       0                               0D    208
     128     220                                                00010000D    209
     128       0    -247       3       0                               0D    210
     128     223                                                00010000D    211
     128       0    -247       3       0                               0D    212
     128     226                                                00010000D    213
     128       0    -247       3       0                               0D    214
     128     229                                                00010000D    215
     128       0    -247       3       0                               0D    216
     128     232                                                00010000D    217
     128       0    -247       3       0                               0D    218
     128     235                                                00010000D    219
     128       0    -247       3       0                               0D    220
     128     238                                                00010000D    221
     128       0    -247       3       0                               0D    222
     128     241                                                00010000D    223
     128       0    -247       4       0                               0D    224
     128     245                                                00010000D    225
     128       0    -247       3       0                               0D    226
     128     248                                                00010000D    227
     128       0    -247       3       0                               0D    228
     128     251                                                00010000D    229
     128       0    -247       4       0                               0D    230
     128     255                                                00010000D    231
     128       0    -247       3       0                               0D    232
     128     258                                                00010000D    233
     128       0    -247       3       0                               0D    234
     128     261                                                00010000D    235
     128       0    -247       3       0                               0D    236
     128     264                                                00010000D    237
     128       0    -247       4       0                               0D    238
     128     268                                                00010000D    239
     128       0    -247       4       0                               0D    240
     502     272                                                00010000D    241
     502                       8       1                               0D    242
     504     280                                                00010001D    243
     504                      16       1                               0D    244
     406     296                                                00000000D    245
     406                       1      15                               0D    246
     314     297                                                00000200D    247
     314                       2       0                               0D    248
186,3,1,0,0,1,245;                                                     1P      1
514,20,5,1,7,1,9,1,11,1,13,1,15,1,17,1,19,1,21,1,23,1,25,1,27,1,       3P      2
29,1,31,1,33,1,35,1,37,1,39,1,41,1,43,1;                               3P      3
510,201,1,1,45;                                                        5P      4
510,203,1,1,47;                                                        7P      5
510,205,1,1,49;                                                        9P      6
510,207,1,1,51;                                                       11P      7
510,209,1,1,53;                                                       13P      8
510,211,2,1,55,57;                                                    15P      9
510,213,1,1,59;                                                       17P     10
510,215,2,1,61,63;                                                    19P     11
510,217,1,1,65;                                                       21P     12
510,219,1,1,67;                                                       23P     13
510,221,1,1,69;                                                       25P     14
510,223,1,1,71;                                                       27P     15
510,225,1,1,73;                                                       29P     16
510,227,2,1,75,77;                                                    31P     17
510,229,1,1,79;                                                       33P     18
510,231,2,1,81,83;                                                    35P     19
510,233,1,1,85;                                                       37P     20
510,235,1,1,87;                                                       39P     21
510,237,1,1,89;                                                       41P     22
510,239,1,1,91;                                                       43P     23
508,4,0,243,1,0,0,0,243,2,1,0,0,243,3,0,0,0,243,2,0,0;                45P     24
508,4,0,243,4,0,0,0,243,5,1,0,0,243,6,0,0,0,243,5,0,0;                47P     25
508,4,0,243,7,0,0,0,243,8,1,0,0,243,9,0,0,0,243,10,0,0;               49P     26
508,4,0,243,11,0,0,0,243,10,1,0,0,243,12,0,0,0,243,13,0,0;            51P     27
508,4,0,243,14,0,0,0,243,13,1,0,0,243,15,0,0,0,243,16,0,0;            53P     28
508,4,0,243,17,0,0,0,243,16,1,0,0,243,18,0,0,0,243,19,0,0;            55P     29
508,1,0,243,4,1,0;                                                    57P     30
508,4,0,243,20,1,0,0,243,19,1,0,0,243,21,0,0,0,243,22,0,0;            59P     31
508,4,0,243,23,1,0,0,243,22,1,0,0,243,24,0,0,0,243,25,0,0;            61P     32
508,1,0,243,6,1,0;                                                    63P     33
508,4,0,243,26,1,0,0,243,25,1,0,0,243,27,0,0,0,243,28,0,0;            65P     34
508,4,0,243,29,1,0,0,243,28,1,0,0,243,30,0,0,0,243,31,0,0;            67P     35
508,4,0,243,32,1,0,0,243,31,1,0,0,243,33,0,0,0,243,34,0,0;            69P     36
508,4,0,243,35,1,0,0,243,34,1,0,0,243,36,0,0,0,243,37,0,0;            71P     37
508,4,0,243,38,1,0,0,243,37,1,0,0,243,39,0,0,0,243,40,0,0;            73P     38
508,4,0,243,41,1,0,0,243,40,1,0,0,243,42,0,0,0,243,43,0,0;            75P     39
508,1,0,243,1,1,0;                                                    77P     40
508,4,0,243,44,1,0,0,243,43,1,0,0,243,45,0,0,0,243,46,0,0;            79P     41
508,4,0,243,47,1,0,0,243,46,1,0,0,243,48,0,0,0,243,49,0,0;            81P     42
508,1,0,243,3,1,0;                                                    83P     43
508,4,0,243,50,1,0,0,243,49,1,0,0,243,51,0,0,0,243,52,0,0;            85P     44
508,4,0,243,53,1,0,0,243,52,1,0,0,243,54,0,0,0,243,8,0,0;             87P     45
508,16,0,243,54,1,0,0,243,51,1,0,0,243,48,1,0,0,243,45,1,0,0,         89P     46
243,42,1,0,0,243,39,1,0,0,243,36,1,0,0,243,33,1,0,0,243,30,1,0,       89P     47
0,243,27,1,0,0,243,24,1,0,0,243,21,1,0,0,243,18,1,0,0,243,15,1,       89P     48
0,0,243,12,1,0,0,243,9,1,0;                                           89P     49
508,16,0,243,53,0,0,0,243,7,1,0,0,243,11,1,0,0,243,14,1,0,0,243,      91P     50
17,1,0,0,243,20,0,0,0,243,23,0,0,0,243,26,0,0,0,243,29,0,0,0,         91P     51
243,32,0,0,0,243,35,0,0,0,243,38,0,0,0,243,41,0,0,0,243,44,0,0,       91P     52
0,243,47,0,0,0,243,50,0,0;                                            91P     53
126,8,2,0,1,0,0,-3.14159265358979,-3.14159265358979,                  93P     54
-3.14159265358979,-1.5707963267949,-1.5707963267949,0.,0.,            93P     55
1.5707963267949,1.5707963267949,3.14159265358979,                     93P     56
3.14159265358979,3.14159265358979,1.,0.707106781186548,1.,            93P     57
0.707106781186548,1.,0.707106781186548,1.,0.707106781186548,1.,       93P     58
22.5,-1.,8.,22.5,-1.,10.5,20.,-1.,10.5,17.5,-1.,10.5,17.5,-1.,        93P     59
8.,17.5,-1.,5.5,20.,-1.,5.5,22.5,-1.,5.5,22.5,-1.,8.,                 93P     60
-3.14159265358979,3.14159265358979,0.,0.,0.;                          93P     61
126,1,1,0,0,1,0,0.,0.,1.8,1.8,1.,1.,22.5,-1.,8.,22.5,-5.5,8.,0.,      95P     62
1.8,0.,0.,0.;                                                         95P     63
126,8,2,0,1,0,0,-3.14159265358979,-3.14159265358979,                  97P     64
-3.14159265358979,-1.5707963267949,-1.5707963267949,0.,0.,            97P     65
1.5707963267949,1.5707963267949,3.14159265358979,                     97P     66
3.14159265358979,3.14159265358979,1.,0.707106781186548,1.,            97P     67
0.707106781186548,1.,0.707106781186548,1.,0.707106781186548,1.,       97P     68
22.5,-5.5,8.,22.5,-5.5,5.5,20.,-5.5,5.5,17.5,-5.5,5.5,17.5,-5.5,      97P     69
8.,17.5,-5.5,10.5,20.,-5.5,10.5,22.5,-5.5,10.5,22.5,-5.5,8.,          97P     70
-3.14159265358979,3.14159265358979,0.,0.,0.;                          97P     71
126,8,2,0,1,0,0,-3.14159265358979,-3.14159265358979,                  99P     72
-3.14159265358979,-1.5707963267949,-1.5707963267949,0.,0.,            99P     73
1.5707963267949,1.5707963267949,3.14159265358979,                     99P     74
3.14159265358979,3.14159265358979,1.,0.707106781186548,1.,            99P     75
0.707106781186548,1.,0.707106781186548,1.,0.707106781186548,1.,       99P     76
22.5,-7.,8.,22.5,-7.,10.5,20.,-7.,10.5,17.5,-7.,10.5,17.5,-7.,        99P     77
8.,17.5,-7.,5.5,20.,-7.,5.5,22.5,-7.,5.5,22.5,-7.,8.,                 99P     78
-3.14159265358979,3.14159265358979,0.,0.,0.;                          99P     79
126,1,1,0,0,1,0,2.4,2.4,4.2,4.2,1.,1.,22.5,-7.,8.,22.5,-11.5,8.,     101P     80
2.4,4.2,0.,0.,0.;                                                    101P     81
126,8,2,0,1,0,0,-3.14159265358979,-3.14159265358979,                 103P     82
-3.14159265358979,-1.5707963267949,-1.5707963267949,0.,0.,           103P     83
1.5707963267949,1.5707963267949,3.14159265358979,                    103P     84
3.14159265358979,3.14159265358979,1.,0.707106781186548,1.,           103P     85
0.707106781186548,1.,0.707106781186548,1.,0.707106781186548,1.,      103P     86
22.5,-11.5,8.,22.5,-11.5,5.5,20.,-11.5,5.5,17.5,-11.5,5.5,17.5,      103P     87
-11.5,8.,17.5,-11.5,10.5,20.,-11.5,10.5,22.5,-11.5,10.5,22.5,        103P     88
-11.5,8.,-3.14159265358979,3.14159265358979,0.,0.,0.;                103P     89
126,1,1,0,0,1,0,0.,0.,1.25,1.25,1.,1.,0.,0.,0.,0.,-12.5,0.,0.,       105P     90
1.25,0.,0.,0.;                                                       105P     91
126,1,1,0,0,1,0,0.,0.,1.6,1.6,1.,1.,0.,0.,0.,0.,0.,16.,0.,1.6,       107P     92
0.,0.,0.;                                                            107P     93
126,1,1,0,0,1,0,-1.25,-1.25,0.,0.,1.,1.,0.,-12.5,16.,0.,0.,16.,      109P     94
-1.25,0.,0.,0.,0.;                                                   109P     95
126,1,1,0,0,1,0,0.,0.,1.6,1.6,1.,1.,0.,-12.5,0.,0.,-12.5,16.,0.,     111P     96
1.6,0.,0.,0.;                                                        111P     97
126,1,1,0,0,1,0,0.,0.,1.23,1.23,1.,1.,0.,-12.5,0.,12.3,-12.5,0.,     113P     98
0.,1.23,0.,0.,0.;                                                    113P     99
126,1,1,0,0,1,0,-1.23,-1.23,0.,0.,1.,1.,12.3,-12.5,16.,0.,-12.5,     115P    100
16.,-1.23,0.,0.,0.,0.;                                               115P    101
126,1,1,0,0,1,0,0.,0.,1.6,1.6,1.,1.,12.3,-12.5,0.,12.3,-12.5,        117P    102
16.,0.,1.6,0.,0.,0.;                                                 117P    103
126,1,1,0,0,1,0,0.,0.,0.55,0.55,1.,1.,12.3,-12.5,0.,12.3,-7.,0.,     119P    104
0.,0.55,0.,0.,0.;                                                    119P    105
126,1,1,0,0,1,0,-0.55,-0.55,0.,0.,1.,1.,12.3,-7.,16.,12.3,-12.5,     121P    106
16.,-0.55,0.,0.,0.,0.;                                               121P    107
126,1,1,0,0,1,0,0.,0.,1.6,1.6,1.,1.,12.3,-7.,0.,12.3,-7.,16.,0.,     123P    108
1.6,0.,0.,0.;                                                        123P    109
126,1,1,0,0,1,0,-0.6625,-0.6625,0.6975,0.6975,1.,1.,12.3,-7.,0.,     125P    110
25.9,-7.,0.,-0.6625,0.6975,0.,0.,0.;                                 125P    111
126,1,1,0,0,1,0,-0.6975,-0.6975,0.6625,0.6625,1.,1.,25.9,-7.,        127P    112
16.,12.3,-7.,16.,-0.6975,0.6625,0.,0.,0.;                            127P    113
126,1,1,0,0,1,0,0.,0.,1.6,1.6,1.,1.,25.9,-7.,0.,25.9,-7.,16.,0.,     129P    114
1.6,0.,0.,0.;                                                        129P    115
126,1,1,0,0,1,0,0.,0.,0.45,0.45,1.,1.,25.9,-11.5,0.,25.9,-7.,0.,     131P    116
0.,0.45,0.,0.,0.;                                                    131P    117
126,1,1,0,0,1,0,0.,0.,0.45,0.45,1.,1.,25.9,-11.5,16.,25.9,-7.,       133P    118
16.,0.,0.45,0.,0.,0.;                                                133P    119
126,1,1,0,0,1,0,0.,0.,1.6,1.6,1.,1.,25.9,-11.5,0.,25.9,-11.5,        135P    120
16.,0.,1.6,0.,0.,0.;                                                 135P    121
126,1,1,0,0,1,0,0.,0.,1.16,1.16,1.,1.,14.3,-11.5,0.,25.9,-11.5,      137P    122
0.,0.,1.16,0.,0.,0.;                                                 137P    123
126,1,1,0,0,1,0,0.,0.,1.16,1.16,1.,1.,14.3,-11.5,16.,25.9,-11.5,     139P    124
16.,0.,1.16,0.,0.,0.;                                                139P    125
126,1,1,0,0,1,0,0.,0.,1.6,1.6,1.,1.,14.3,-11.5,0.,14.3,-11.5,        141P    126
16.,0.,1.6,0.,0.,0.;                                                 141P    127
126,1,1,0,0,1,0,0.,0.,0.3,0.3,1.,1.,14.3,-14.5,0.,14.3,-11.5,0.,     143P    128
0.,0.3,0.,0.,0.;                                                     143P    129
126,1,1,0,0,1,0,0.,0.,0.3,0.3,1.,1.,14.3,-14.5,16.,14.3,-11.5,       145P    130
16.,0.,0.3,0.,0.,0.;                                                 145P    131
126,1,1,0,0,1,0,0.,0.,1.6,1.6,1.,1.,14.3,-14.5,0.,14.3,-14.5,        147P    132
16.,0.,1.6,0.,0.,0.;                                                 147P    133
126,1,1,0,0,1,0,0.,0.,1.63,1.63,1.,1.,-2.,-14.5,0.,14.3,-14.5,       149P    134
0.,0.,1.63,0.,0.,0.;                                                 149P    135
126,1,1,0,0,1,0,0.,0.,1.63,1.63,1.,1.,-2.,-14.5,16.,14.3,-14.5,      151P    136
16.,0.,1.63,0.,0.,0.;                                                151P    137
126,1,1,0,0,1,0,0.,0.,1.6,1.6,1.,1.,-2.,-14.5,0.,-2.,-14.5,16.,      153P    138
0.,1.6,0.,0.,0.;                                                     153P    139
126,1,1,0,0,1,0,0.,0.,1.65,1.65,1.,1.,-2.,2.,0.,-2.,-14.5,0.,0.,     155P    140
1.65,0.,0.,0.;                                                       155P    141
126,1,1,0,0,1,0,0.,0.,1.65,1.65,1.,1.,-2.,2.,16.,-2.,-14.5,16.,      157P    142
0.,1.65,0.,0.,0.;                                                    157P    143
126,1,1,0,0,1,0,0.,0.,1.6,1.6,1.,1.,-2.,2.,0.,-2.,2.,16.,0.,1.6,     159P    144
0.,0.,0.;                                                            159P    145
126,1,1,0,0,1,0,0.,0.,1.63,1.63,1.,1.,14.3,2.,0.,-2.,2.,0.,0.,       161P    146
1.63,0.,0.,0.;                                                       161P    147
126,1,1,0,0,1,0,0.,0.,1.63,1.63,1.,1.,14.3,2.,16.,-2.,2.,16.,0.,     163P    148
1.63,0.,0.,0.;                                                       163P    149
126,1,1,0,0,1,0,0.,0.,1.6,1.6,1.,1.,14.3,2.,0.,14.3,2.,16.,0.,       165P    150
1.6,0.,0.,0.;                                                        165P    151
126,1,1,0,0,1,0,0.,0.,0.3,0.3,1.,1.,14.3,-1.,0.,14.3,2.,0.,0.,       167P    152
0.3,0.,0.,0.;                                                        167P    153
126,1,1,0,0,1,0,0.,0.,0.3,0.3,1.,1.,14.3,-1.,16.,14.3,2.,16.,0.,     169P    154
0.3,0.,0.,0.;                                                        169P    155
126,1,1,0,0,1,0,0.,0.,1.6,1.6,1.,1.,14.3,-1.,0.,14.3,-1.,16.,0.,     171P    156
1.6,0.,0.,0.;                                                        171P    157
126,1,1,0,0,1,0,0.,0.,1.16,1.16,1.,1.,25.9,-1.,0.,14.3,-1.,0.,       173P    158
0.,1.16,0.,0.,0.;                                                    173P    159
126,1,1,0,0,1,0,0.,0.,1.16,1.16,1.,1.,25.9,-1.,16.,14.3,-1.,16.,     175P    160
0.,1.16,0.,0.,0.;                                                    175P    161
126,1,1,0,0,1,0,0.,0.,1.6,1.6,1.,1.,25.9,-1.,0.,25.9,-1.,16.,0.,     177P    162
1.6,0.,0.,0.;                                                        177P    163
126,1,1,0,0,1,0,-0.25,-0.25,0.2,0.2,1.,1.,25.9,-5.5,0.,25.9,-1.,     179P    164
0.,-0.25,0.2,0.,0.,0.;                                               179P    165
126,1,1,0,0,1,0,-0.25,-0.25,0.2,0.2,1.,1.,25.9,-5.5,16.,25.9,        181P    166
-1.,16.,-0.25,0.2,0.,0.,0.;                                          181P    167
126,1,1,0,0,1,0,0.,0.,1.6,1.6,1.,1.,25.9,-5.5,0.,25.9,-5.5,16.,      183P    168
0.,1.6,0.,0.,0.;                                                     183P    169
126,1,1,0,0,1,0,0.0174999999999998,0.0174999999999998,1.3775,        185P    170
1.3775,1.,1.,12.3,-5.5,0.,25.9,-5.5,0.,0.0174999999999998,           185P    171
1.3775,0.,0.,0.;                                                     185P    172
126,1,1,0,0,1,0,0.0174999999999998,0.0174999999999998,1.3775,        187P    173
1.3775,1.,1.,12.3,-5.5,16.,25.9,-5.5,16.,0.0174999999999998,         187P    174
1.3775,0.,0.,0.;                                                     187P    175
126,1,1,0,0,1,0,0.,0.,1.6,1.6,1.,1.,12.3,-5.5,0.,12.3,-5.5,16.,      189P    176
0.,1.6,0.,0.,0.;                                                     189P    177
126,1,1,0,0,1,0,0.,0.,0.55,0.55,1.,1.,12.3,0.,0.,12.3,-5.5,0.,       191P    178
0.,0.55,0.,0.,0.;                                                    191P    179
126,1,1,0,0,1,0,0.,0.,0.55,0.55,1.,1.,12.3,0.,16.,12.3,-5.5,16.,     193P    180
0.,0.55,0.,0.,0.;                                                    193P    181
126,1,1,0,0,1,0,0.,0.,1.6,1.6,1.,1.,12.3,0.,0.,12.3,0.,16.,0.,       195P    182
1.6,0.,0.,0.;                                                        195P    183
126,1,1,0,0,1,0,0.,0.,1.23,1.23,1.,1.,0.,0.,0.,12.3,0.,0.,0.,        197P    184
1.23,0.,0.,0.;                                                       197P    185
126,1,1,0,0,1,0,0.,0.,1.23,1.23,1.,1.,0.,0.,16.,12.3,0.,16.,0.,      199P    186
1.23,0.,0.,0.;                                                       199P    187
128,1,8,1,2,0,1,0,0,1,0.,0.,1.8,1.8,-3.14159265358979,               201P    188
-3.14159265358979,-3.14159265358979,-1.5707963267949,                201P    189
-1.5707963267949,0.,0.,1.5707963267949,1.5707963267949,              201P    190
3.14159265358979,3.14159265358979,3.14159265358979,1.,1.,            201P    191
0.707106781186548,0.707106781186548,1.,1.,0.707106781186548,         201P    192
0.707106781186548,1.,1.,0.707106781186548,0.707106781186548,1.,      201P    193
1.,0.707106781186548,0.707106781186548,1.,1.,22.5,-1.,8.,22.5,       201P    194
-5.5,8.,22.5,-1.,10.5,22.5,-5.5,10.5,20.,-1.,10.5,20.,-5.5,10.5,     201P    195
17.5,-1.,10.5,17.5,-5.5,10.5,17.5,-1.,8.,17.5,-5.5,8.,17.5,-1.,      201P    196
5.5,17.5,-5.5,5.5,20.,-1.,5.5,20.,-5.5,5.5,22.5,-1.,5.5,22.5,        201P    197
-5.5,5.5,22.5,-1.,8.,22.5,-5.5,8.,0.,1.8,-3.14159265358979,          201P    198
3.14159265358979;                                                    201P    199
128,1,8,1,2,0,1,0,0,1,2.4,2.4,4.2,4.2,-3.14159265358979,             203P    200
-3.14159265358979,-3.14159265358979,-1.5707963267949,                203P    201
-1.5707963267949,0.,0.,1.5707963267949,1.5707963267949,              203P    202
3.14159265358979,3.14159265358979,3.14159265358979,1.,1.,            203P    203
0.707106781186548,0.707106781186548,1.,1.,0.707106781186548,         203P    204
0.707106781186548,1.,1.,0.707106781186548,0.707106781186548,1.,      203P    205
1.,0.707106781186548,0.707106781186548,1.,1.,22.5,-7.,8.,22.5,       203P    206
-11.5,8.,22.5,-7.,10.5,22.5,-11.5,10.5,20.,-7.,10.5,20.,-11.5,       203P    207
10.5,17.5,-7.,10.5,17.5,-11.5,10.5,17.5,-7.,8.,17.5,-11.5,8.,        203P    208
17.5,-7.,5.5,17.5,-11.5,5.5,20.,-7.,5.5,20.,-11.5,5.5,22.5,-7.,      203P    209
5.5,22.5,-11.5,5.5,22.5,-7.,8.,22.5,-11.5,8.,2.4,4.2,                203P    210
-3.14159265358979,3.14159265358979;                                  203P    211
128,1,1,1,1,0,0,1,0,0,-0.001,-0.001,1.251,1.251,-0.001,-0.001,       205P    212
1.601,1.601,1.,1.,1.,1.,0.,-12.51,-0.01,0.,0.0099999999999989,       205P    213
-0.01,0.,-12.51,16.01,0.,0.0099999999999989,16.01,-0.001,1.251,      205P    214
-0.001,1.601;                                                        205P    215
128,1,1,1,1,0,0,1,0,0,-0.001,-0.001,1.231,1.231,-0.001,-0.001,       207P    216
1.601,1.601,1.,1.,1.,1.,12.31,-12.5,-0.01,-0.0099999999999989,       207P    217
-12.5,-0.01,12.31,-12.5,16.01,-0.0099999999999989,-12.5,16.01,       207P    218
-0.001,1.231,-0.001,1.601;                                           207P    219
128,1,1,1,1,0,0,1,0,0,-0.251,-0.251,0.301,0.301,-0.001,-0.001,       209P    220
1.601,1.601,1.,1.,1.,1.,12.3,-6.99,-0.01,12.3,-12.51,-0.01,12.3,     209P    221
-6.99,16.01,12.3,-12.51,16.01,-0.251,0.301,-0.001,1.601;             209P    222
128,1,1,1,1,0,0,1,0,0,-0.001,-0.001,1.361,1.361,-0.001,-0.001,       211P    223
1.601,1.601,1.,1.,1.,1.,25.91,-7.,-0.01,12.29,-7.,-0.01,25.91,       211P    224
-7.,16.01,12.29,-7.,16.01,-0.001,1.361,-0.001,1.601;                 211P    225
128,1,1,1,1,0,0,1,0,0,-0.001,-0.001,0.451,0.451,-0.001,-0.001,       213P    226
1.601,1.601,1.,1.,1.,1.,25.9,-11.51,-0.01,25.9,-6.99,-0.01,25.9,     213P    227
-11.51,16.01,25.9,-6.99,16.01,-0.001,0.451,-0.001,1.601;             213P    228
128,1,1,1,1,0,0,1,0,0,-0.001,-0.001,1.161,1.161,-0.001,-0.001,       215P    229
1.601,1.601,1.,1.,1.,1.,14.29,-11.5,-0.01,25.91,-11.5,-0.01,         215P    230
14.29,-11.5,16.01,25.91,-11.5,16.01,-0.001,1.161,-0.001,1.601;       215P    231
128,1,1,1,1,0,0,1,0,0,-0.001,-0.001,0.301,0.301,-0.001,-0.001,       217P    232
1.601,1.601,1.,1.,1.,1.,14.3,-14.51,-0.01,14.3,-11.49,-0.01,         217P    233
14.3,-14.51,16.01,14.3,-11.49,16.01,-0.001,0.301,-0.001,1.601;       217P    234
128,1,1,1,1,0,0,1,0,0,-0.001,-0.001,1.631,1.631,-0.001,-0.001,       219P    235
1.601,1.601,1.,1.,1.,1.,-2.01,-14.5,-0.01,14.31,-14.5,-0.01,         219P    236
-2.01,-14.5,16.01,14.31,-14.5,16.01,-0.001,1.631,-0.001,1.601;       219P    237
128,1,1,1,1,0,0,1,0,0,-0.001,-0.001,1.651,1.651,-0.001,-0.001,       221P    238
1.601,1.601,1.,1.,1.,1.,-2.,2.01,-0.01,-2.,-14.51,-0.01,-2.,         221P    239
2.01,16.01,-2.,-14.51,16.01,-0.001,1.651,-0.001,1.601;               221P    240
128,1,1,1,1,0,0,1,0,0,-0.001,-0.001,1.631,1.631,-0.001,-0.001,       223P    241
1.601,1.601,1.,1.,1.,1.,14.31,2.,-0.01,-2.00999999999999,2.,         223P    242
-0.01,14.31,2.,16.01,-2.00999999999999,2.,16.01,-0.001,1.631,        223P    243
-0.001,1.601;                                                        223P    244
128,1,1,1,1,0,0,1,0,0,-0.001,-0.001,0.301,0.301,-0.001,-0.001,       225P    245
1.601,1.601,1.,1.,1.,1.,14.3,-1.01,-0.01,14.3,2.01,-0.01,14.3,       225P    246
-1.01,16.01,14.3,2.01,16.01,-0.001,0.301,-0.001,1.601;               225P    247
128,1,1,1,1,0,0,1,0,0,-0.001,-0.001,1.161,1.161,-0.001,-0.001,       227P    248
1.601,1.601,1.,1.,1.,1.,25.91,-1.,-0.01,14.29,-1.,-0.01,25.91,       227P    249
-1.,16.01,14.29,-1.,16.01,-0.001,1.161,-0.001,1.601;                 227P    250
128,1,1,1,1,0,0,1,0,0,-0.251,-0.251,0.201,0.201,-0.001,-0.001,       229P    251
1.601,1.601,1.,1.,1.,1.,25.9,-5.51,-0.01,25.9,-0.99,-0.01,25.9,      229P    252
-5.51,16.01,25.9,-0.990000000000001,16.01,-0.251,0.201,-0.001,       229P    253
1.601;                                                               229P    254
128,1,1,1,1,0,0,1,0,0,-0.001,-0.001,1.361,1.361,-0.001,-0.001,       231P    255
1.601,1.601,1.,1.,1.,1.,12.29,-5.5,-0.01,25.91,-5.5,-0.01,12.29,     231P    256
-5.5,16.01,25.91,-5.5,16.01,-0.001,1.361,-0.001,1.601;               231P    257
128,1,1,1,1,0,0,1,0,0,-0.001,-0.001,0.551,0.551,-0.001,-0.001,       233P    258
1.601,1.601,1.,1.,1.,1.,12.3,0.01,-0.01,12.3,-5.51,-0.01,12.3,       233P    259
0.01,16.01,12.3,-5.51,16.01,-0.001,0.551,-0.001,1.601;               233P    260
128,1,1,1,1,0,0,1,0,0,-0.001,-0.001,1.231,1.231,-0.001,-0.001,       235P    261
1.601,1.601,1.,1.,1.,1.,-0.01,0.,-0.01,12.31,0.,-0.01,-0.01,0.,      235P    262
16.01,12.31,0.,16.01,-0.001,1.231,-0.001,1.601;                      235P    263
128,1,1,1,1,0,0,1,0,0,-1.396,-1.396,1.396,1.396,-0.826,-0.826,       237P    264
0.826,0.826,1.,1.,1.,1.,-2.00999999999999,-14.51,16.,25.91,          237P    265
-14.51,16.,-2.00999999999999,2.01,16.,25.91,2.01,16.,-1.396,         237P    266
1.396,-0.826,0.826;                                                  237P    267
128,1,1,1,1,0,0,1,0,0,-1.396,-1.396,1.396,1.396,-0.826,-0.826,       239P    268
0.826,0.826,1.,1.,1.,1.,25.91,-14.51,0.,-2.00999999999999,           239P    269
-14.51,0.,25.91,2.01,0.,-2.00999999999999,2.01,0.,-1.396,1.396,      239P    270
-0.826,0.826;                                                        239P    271
502,36,22.5,-1.,8.,22.5,-5.5,8.,22.5,-7.,8.,22.5,-11.5,8.,0.,0.,     241P    272
0.,0.,-12.5,0.,0.,0.,16.,0.,-12.5,16.,12.3,-12.5,0.,12.3,-12.5,      241P    273
16.,12.3,-7.,0.,12.3,-7.,16.,25.9,-7.,0.,25.9,-7.,16.,25.9,          241P    274
-11.5,0.,25.9,-11.5,16.,14.3,-11.5,0.,14.3,-11.5,16.,14.3,-14.5,     241P    275
0.,14.3,-14.5,16.,-2.,-14.5,0.,-2.,-14.5,16.,-2.,2.,0.,-2.,2.,       241P    276
16.,14.3,2.,0.,14.3,2.,16.,14.3,-1.,0.,14.3,-1.,16.,25.9,-1.,0.,     241P    277
25.9,-1.,16.,25.9,-5.5,0.,25.9,-5.5,16.,12.3,-5.5,0.,12.3,-5.5,      241P    278
16.,12.3,0.,0.,12.3,0.,16.;                                          241P    279
504,54,93,241,1,241,1,95,241,1,241,2,97,241,2,241,2,99,241,3,        243P    280
241,3,101,241,3,241,4,103,241,4,241,4,105,241,5,241,6,107,241,5,     243P    281
241,7,109,241,8,241,7,111,241,6,241,8,113,241,6,241,9,115,241,       243P    282
10,241,8,117,241,9,241,10,119,241,9,241,11,121,241,12,241,10,        243P    283
123,241,11,241,12,125,241,11,241,13,127,241,14,241,12,129,241,       243P    284
13,241,14,131,241,15,241,13,133,241,16,241,14,135,241,15,241,16,     243P    285
137,241,17,241,15,139,241,18,241,16,141,241,17,241,18,143,241,       243P    286
19,241,17,145,241,20,241,18,147,241,19,241,20,149,241,21,241,19,     243P    287
151,241,22,241,20,153,241,21,241,22,155,241,23,241,21,157,241,       243P    288
24,241,22,159,241,23,241,24,161,241,25,241,23,163,241,26,241,24,     243P    289
165,241,25,241,26,167,241,27,241,25,169,241,28,241,26,171,241,       243P    290
27,241,28,173,241,29,241,27,175,241,30,241,28,177,241,29,241,30,     243P    291
179,241,31,241,29,181,241,32,241,30,183,241,31,241,32,185,241,       243P    292
33,241,31,187,241,34,241,32,189,241,33,241,34,191,241,35,241,33,     243P    293
193,241,36,241,34,195,241,35,241,36,197,241,5,241,35,199,241,7,      243P    294
241,36;                                                              243P    295
406,1,5HBody1;                                                       245P    296
314,62.7450980392157,62.7450980392157,62.7450980392157,13HSteel      247P    297
- Satin;                                                             247P    298
S      1G      3D    248P    298                                        T      1
