                                                                        S      1
,,16Hreservoir_holder,16Hreservoir_holder,7Hunknown,7Hunknown,32,38,7,  G      1
99,15,,1.,2,2HMM,1,0.08,15H20220520.123024,0.01,10000.,7Hunknown,7HunknoG      2
wn,11,0,15H20210210.183407;                                             G      3
     186       1                                                00000000D      1
     186            -249       1       0                               0D      2
     514       2                                                00010000D      3
     514                       2       1                               0D      4
     510       4                                                00010000D      5
     510            -249       1       1                               0D      6
     510       5                                                00010000D      7
     510            -249       1       1                               0D      8
     510       6                                                00010000D      9
     510            -249       1       1                               0D     10
     510       7                                                00010000D     11
     510            -249       1       1                               0D     12
     510       8                                                00010000D     13
     510            -249       1       1                               0D     14
     510       9                                                00010000D     15
     510            -249       1       1                               0D     16
     510      10                                                00010000D     17
     510            -249       1       1                               0D     18
     510      11                                                00010000D     19
     510            -249       1       1                               0D     20
     510      12                                                00010000D     21
     510            -249       1       1                               0D     22
     510      13                                                00010000D     23
     510            -249       1       1                               0D     24
     510      14                                                00010000D     25
     510            -249       1       1                               0D     26
     510      15                                                00010000D     27
     510            -249       1       1                               0D     28
     510      16                                                00010000D     29
     510            -249       1       1                               0D     30
     510      17                                                00010000D     31
     510            -249       1       1                               0D     32
     510      18                                                00010000D     33
     510            -249       1       1                               0D     34
     510      19                                                00010000D     35
     510            -249       1       1                               0D     36
     510      20                                                00010000D     37
     510            -249       1       1                               0D     38
     510      21                                                00010000D     39
     510            -249       1       1                               0D     40
     510      22                                                00010000D     41
     510            -249       1       1                               0D     42
     510      23                                                00010000D     43
     510            -249       1       1                               0D     44
     510      24                                                00010000D     45
     510            -249       1       1                               0D     46
     508      25                                                00010000D     47
     508                       1       1                               0D     48
     508      26                                                00010000D     49
     508                       1       1                               0D     50
     508      27                                                00010000D     51
     508                       1       1                               0D     52
     508      28                                                00010000D     53
     508                       2       1                               0D     54
     508      30                                                00010000D     55
     508                       1       1                               0D     56
     508      31                                                00010000D     57
     508                       1       1                               0D     58
     508      32                                                00010000D     59
     508                       1       1                               0D     60
     508      33                                                00010000D     61
     508                       3       1                               0D     62
     508      36                                                00010000D     63
     508                       1       1                               0D     64
     508      37                                                00010000D     65
     508                       4       1                               0D     66
     508      41                                                00010000D     67
     508                       1       1                               0D     68
     508      42                                                00010000D     69
     508                       1       1                               0D     70
     508      43                                                00010000D     71
     508                       1       1                               0D     72
     508      44                                                00010000D     73
     508                       1       1                               0D     74
     508      45                                                00010000D     75
     508                       1       1                               0D     76
     508      46                                                00010000D     77
     508                       2       1                               0D     78
     508      48                                                00010000D     79
     508                       1       1                               0D     80
     508      49                                                00010000D     81
     508                       1       1                               0D     82
     508      50                                                00010000D     83
     508                       1       1                               0D     84
     508      51                                                00010000D     85
     508                       1       1                               0D     86
     508      52                                                00010000D     87
     508                       2       1                               0D     88
     126      54                                                00010000D     89
     126       0               2       0                               0D     90
     126      56                                                00010000D     91
     126       0               2       0                               0D     92
     126      58                                                00010000D     93
     126       0               2       0                               0D     94
     126      60                                                00010000D     95
     126       0               2       0                               0D     96
     126      62                                                00010000D     97
     126       0               6       0                               0D     98
     126      68                                                00010000D     99
     126       0               6       0                               0D    100
     126      74                                                00010000D    101
     126       0               2       0                               0D    102
     126      76                                                00010000D    103
     126       0              13       0                               0D    104
     126      89                                                00010000D    105
     126       0               3       0                               0D    106
     126      92                                                00010000D    107
     126       0               4       0                               0D    108
     126      96                                                00010000D    109
     126       0               3       0                               0D    110
     126      99                                                00010000D    111
     126       0               6       0                               0D    112
     126     105                                                00010000D    113
     126       0               2       0                               0D    114
     126     107                                                00010000D    115
     126       0               2       0                               0D    116
     126     109                                                00010000D    117
     126       0               2       0                               0D    118
     126     111                                                00010000D    119
     126       0              14       0                               0D    120
     126     125                                                00010000D    121
     126       0               2       0                               0D    122
     126     127                                                00010000D    123
     126       0               4       0                               0D    124
     126     131                                                00010000D    125
     126       0               3       0                               0D    126
     126     134                                                00010000D    127
     126       0               2       0                               0D    128
     126     136                                                00010000D    129
     126       0               2       0                               0D    130
     126     138                                                00010000D    131
     126       0               2       0                               0D    132
     126     140                                                00010000D    133
     126       0               2       0                               0D    134
     126     142                                                00010000D    135
     126       0               2       0                               0D    136
     126     144                                                00010000D    137
     126       0               2       0                               0D    138
     126     146                                                00010000D    139
     126       0               2       0                               0D    140
     126     148                                                00010000D    141
     126       0               3       0                               0D    142
     126     151                                                00010000D    143
     126       0               4       0                               0D    144
     126     155                                                00010000D    145
     126       0               2       0                               0D    146
     126     157                                                00010000D    147
     126       0               2       0                               0D    148
     126     159                                                00010000D    149
     126       0               2       0                               0D    150
     126     161                                                00010000D    151
     126       0               4       0                               0D    152
     126     165                                                00010000D    153
     126       0               3       0                               0D    154
     126     168                                                00010000D    155
     126       0               2       0                               0D    156
     126     170                                                00010000D    157
     126       0               2       0                               0D    158
     126     172                                                00010000D    159
     126       0               2       0                               0D    160
     126     174                                                00010000D    161
     126       0               2       0                               0D    162
     126     176                                                00010000D    163
     126       0               3       0                               0D    164
     126     179                                                00010000D    165
     126       0               4       0                               0D    166
     126     183                                                00010000D    167
     126       0               2       0                               0D    168
     126     185                                                00010000D    169
     126       0               2       0                               0D    170
     126     187                                                00010000D    171
     126       0               2       0                               0D    172
     126     189                                                00010000D    173
     126       0               2       0                               0D    174
     126     191                                                00010000D    175
     126       0               2       0                               0D    176
     126     193                                                00010000D    177
     126       0               4       0                               0D    178
     126     197                                                00010000D    179
     126       0               3       0                               0D    180
     126     200                                                00010000D    181
     126       0               4       0                               0D    182
     126     204                                                00010000D    183
     126       0               2       0                               0D    184
     126     206                                                00010000D    185
     126       0               3       0                               0D    186
     126     209                                                00010000D    187
     126       0               2       0                               0D    188
     126     211                                                00010000D    189
     126       0               2       0                               0D    190
     126     213                                                00010000D    191
     126       0               5       0                               0D    192
     126     218                                                00010000D    193
     126       0               2       0                               0D    194
     126     220                                                00010000D    195
     126       0               4       0                               0D    196
     126     224                                                00010000D    197
     126       0               2       0                               0D    198
     126     226                                                00010000D    199
     126       0               2       0                               0D    200
     128     228                                                00010000D    201
     128       0    -249       3       0                               0D    202
     128     231                                                00010000D    203
     128       0    -249       9       0                               0D    204
     128     240                                                00010000D    205
     128       0    -249       7       0                               0D    206
     128     247                                                00010000D    207
     128       0    -249       5       0                               0D    208
     128     252                                                00010000D    209
     128       0    -249       7       0                               0D    210
     128     259                                                00010000D    211
     128       0    -249       3       0                               0D    212
     128     262                                                00010000D    213
     128       0    -249       4       0                               0D    214
     128     266                                                00010000D    215
     128       0    -249       4       0                               0D    216
     128     270                                                00010000D    217
     128       0    -249       4       0                               0D    218
     128     274                                                00010000D    219
     128       0    -249       3       0                               0D    220
     128     277                                                00010000D    221
     128       0    -249       7       0                               0D    222
     128     284                                                00010000D    223
     128       0    -249       6       0                               0D    224
     128     290                                                00010000D    225
     128       0    -249       5       0                               0D    226
     128     295                                                00010000D    227
     128       0    -249       4       0                               0D    228
     128     299                                                00010000D    229
     128       0    -249       3       0                               0D    230
     128     302                                                00010000D    231
     128       0    -249       9       0                               0D    232
     128     311                                                00010000D    233
     128       0    -249       4       0                               0D    234
     128     315                                                00010000D    235
     128       0    -249       4       0                               0D    236
     128     319                                                00010000D    237
     128       0    -249       3       0                               0D    238
     128     322                                                00010000D    239
     128       0    -249       4       0                               0D    240
     128     326                                                00010000D    241
     128       0    -249       3       0                               0D    242
     502     329                                                00010000D    243
     502                      10       1                               0D    244
     504     339                                                00010001D    245
     504                      16       1                               0D    246
     406     355                                                00000000D    247
     406                       1      15                               0D    248
     314     356                                                00000200D    249
     314                       2       0                               0D    250
186,3,1,0,0,1,247;                                                     1P      1
514,21,5,1,7,1,9,1,11,1,13,1,15,1,17,1,19,1,21,1,23,1,25,1,27,1,       3P      2
29,1,31,1,33,1,35,1,37,1,39,1,41,1,43,1,45,1;                          3P      3
510,201,1,1,47;                                                        5P      4
510,203,1,1,49;                                                        7P      5
510,205,1,1,51;                                                        9P      6
510,207,1,1,53;                                                       11P      7
510,209,1,1,55;                                                       13P      8
510,211,1,1,57;                                                       15P      9
510,213,1,1,59;                                                       17P     10
510,215,1,1,61;                                                       19P     11
510,217,1,1,63;                                                       21P     12
510,219,1,1,65;                                                       23P     13
510,221,1,1,67;                                                       25P     14
510,223,1,1,69;                                                       27P     15
510,225,1,1,71;                                                       29P     16
510,227,1,1,73;                                                       31P     17
510,229,1,1,75;                                                       33P     18
510,231,1,1,77;                                                       35P     19
510,233,1,1,79;                                                       37P     20
510,235,1,1,81;                                                       39P     21
510,237,1,1,83;                                                       41P     22
510,239,1,1,85;                                                       43P     23
510,241,1,1,87;                                                       45P     24
508,4,0,245,1,0,0,0,245,2,0,0,0,245,3,0,0,0,245,4,0,0;                47P     25
508,4,0,245,5,1,0,0,245,1,1,0,0,245,6,1,0,0,245,7,1,0;                49P     26
508,4,0,245,8,1,0,0,245,9,1,0,0,245,10,1,0,0,245,11,1,0;              51P     27
508,5,0,245,9,0,0,0,245,12,1,0,0,245,13,1,0,0,245,14,0,0,0,245,       53P     28
15,1,0;                                                               53P     29
508,4,0,245,16,1,0,0,245,17,1,0,0,245,18,1,0,0,245,19,1,0;            55P     30
508,4,0,245,17,0,0,0,245,20,1,0,0,245,21,0,0,0,245,22,0,0;            57P     31
508,4,0,245,7,0,0,0,245,23,0,0,0,245,24,0,0,0,245,25,0,0;             59P     32
508,13,0,245,23,1,0,0,245,6,0,0,0,245,4,1,0,0,245,26,0,0,0,245,       61P     33
27,0,0,0,245,28,1,0,0,245,29,0,0,0,245,13,0,0,0,245,30,0,0,0,         61P     34
245,31,1,0,0,245,32,0,0,0,245,33,1,0,0,245,34,0,0;                    61P     35
508,4,0,245,3,1,0,0,245,35,1,0,0,245,36,1,0,0,245,26,1,0;             63P     36
508,18,0,245,2,1,0,0,245,5,0,0,0,245,25,1,0,0,245,37,0,0,0,245,       65P     37
38,0,0,0,245,39,1,0,0,245,40,0,0,0,245,41,0,0,0,245,18,0,0,0,         65P     38
245,22,1,0,0,245,42,0,0,0,245,43,0,0,0,245,10,0,0,0,245,15,0,0,       65P     39
0,245,44,1,0,0,245,45,0,0,0,245,46,1,0,0,245,35,0,0;                  65P     40
508,4,0,245,28,0,0,0,245,47,1,0,0,245,45,1,0,0,245,48,1,0;            67P     41
508,4,0,245,39,0,0,0,245,49,1,0,0,245,32,1,0,0,245,50,1,0;            69P     42
508,4,0,245,47,0,0,0,245,27,1,0,0,245,36,0,0,0,245,46,0,0;            71P     43
508,4,0,245,49,0,0,0,245,38,1,0,0,245,51,0,0,0,245,33,0,0;            73P     44
508,4,0,245,24,1,0,0,245,34,1,0,0,245,51,1,0,0,245,37,1,0;            75P     45
508,7,0,245,52,0,0,0,245,12,0,0,0,245,8,0,0,0,245,53,1,0,0,245,       77P     46
54,0,0,0,245,20,0,0,0,245,16,0,0;                                     77P     47
508,4,0,245,11,0,0,0,245,43,1,0,0,245,55,0,0,0,245,53,0,0;            79P     48
508,4,0,245,55,1,0,0,245,42,1,0,0,245,21,1,0,0,245,54,1,0;            81P     49
508,4,0,245,56,0,0,0,245,40,1,0,0,245,50,0,0,0,245,31,0,0;            83P     50
508,4,0,245,14,1,0,0,245,29,1,0,0,245,48,0,0,0,245,44,0,0;            85P     51
508,5,0,245,19,0,0,0,245,41,1,0,0,245,56,1,0,0,245,30,1,0,0,245,      87P     52
52,1,0;                                                               87P     53
126,1,1,0,0,1,0,0.,0.,0.5,0.5,1.,1.,-1.,-99.,1.9,-1.,-99.,-3.1,       89P     54
0.,0.5,0.,0.,0.;                                                      89P     55
126,1,1,0,0,1,0,-5.5,-5.5,-4.4,-4.4,1.,1.,-1.,-110.,1.9,-1.,          91P     56
-99.,1.9,-5.5,-4.4,0.,0.,0.;                                          91P     57
126,1,1,0,0,1,0,-0.375,-0.375,0.125,0.125,1.,1.,-1.,-110.,-3.1,       93P     58
-1.,-110.,1.9,-0.375,0.125,0.,0.,0.;                                  93P     59
126,1,1,0,0,1,0,4.4,4.4,5.5,5.5,1.,1.,-1.,-99.,-3.1,-1.,-110.,        95P     60
-3.1,4.4,5.5,0.,0.,0.;                                                95P     61
126,4,2,0,0,0,0,-0.785398163397438,-0.785398163397438,                97P     62
-0.785398163397438,0.785398163397459,0.785398163397459,               97P     63
2.35619449019236,2.35619449019236,2.35619449019236,1.,                97P     64
0.707106781186551,1.,0.707106781186551,1.,1.,-99.,1.9,1.,-98.,        97P     65
1.9,-2.08166817117217D-16,-98.,1.9,-1.,-98.,1.9,-1.,-99.,1.9,         97P     66
-0.785398163397438,2.35619449019236,0.,0.,0.;                         97P     67
126,4,2,0,0,0,0,-0.785398163397438,-0.785398163397438,                99P     68
-0.785398163397438,0.785398163397459,0.785398163397459,               99P     69
2.35619449019236,2.35619449019236,2.35619449019236,1.,                99P     70
0.707106781186551,1.,0.707106781186551,1.,-1.,-99.,-3.1,-1.,          99P     71
-98.,-3.1,-3.46944695195361D-16,-98.,-3.1,1.,-98.,-3.1,1.,-99.,       99P     72
-3.1,-0.785398163397438,2.35619449019236,0.,0.,0.;                    99P     73
126,1,1,0,0,1,0,-0.5,-0.5,0.,0.,1.,1.,1.,-99.,-3.1,1.,-99.,1.9,      101P     74
-0.5,0.,0.,0.,0.;                                                    101P     75
126,9,3,0,0,1,0,0.,0.,0.,0.,0.0742878984145458,                      103P     76
0.0742878984145458,0.148575796829092,0.148575796829092,              103P     77
0.238595541158295,0.238595541158295,0.328615285487498,               103P     78
0.328615285487498,0.328615285487498,0.328615285487498,1.,1.,1.,      103P     79
1.,1.,1.,1.,1.,1.,1.,-5.3,2.,-1.9,-5.3,1.75237367195151,-1.9,        103P     80
-5.34901722090244,1.49001296586182,-1.87699370020226,                103P     81
-5.54203916839862,1.01207605792605,-1.78172895881453,                103P     82
-5.68583171940301,0.796513431005985,-1.70897327773734,               103P     83
-6.03825182444935,0.42292500823393,-1.51871439394152,                103P     84
-6.28006659620941,0.257589425277587,-1.38091596663847,               103P     85
-6.7903927126101,0.0463984976285769,-1.06100640351871,               103P     86
-7.05845147433539,0.,-0.878532358820187,-7.3,0.,                     103P     87
-0.700504825165413,0.,0.328615285487498,0.,0.,0.;                    103P     88
126,1,1,0,0,1,0,0.0549495174834588,0.0549495174834588,0.315,         105P     89
0.315,1.,1.,-7.3,0.,-0.700504825165413,-7.3,0.,1.9,                  105P     90
0.0549495174834588,0.315,0.,0.,0.;                                   105P     91
126,2,2,0,0,0,0,-0.785398163397448,-0.785398163397448,               107P     92
-0.785398163397448,0.785398163397449,0.785398163397449,              107P     93
0.785398163397449,1.,0.707106781186547,1.,-7.3,0.,1.9,-5.3,0.,       107P     94
1.9,-5.3,2.,1.9,-0.785398163397448,0.785398163397449,0.,0.,0.;       107P     95
126,1,1,0,0,1,0,-0.315,-0.315,0.0650000000000001,                    109P     96
0.0650000000000001,1.,1.,-5.3,2.,1.9,-5.3,2.,-1.9,-0.315,            109P     97
0.0650000000000001,0.,0.,0.;                                         109P     98
126,2,2,0,0,0,0,-1.08046776423055,-1.08046776423055,                 111P     99
-1.08046776423055,-0.44532188127273,-0.44532188127273,               111P    100
-0.44532188127273,1.,0.949996092996375,1.,-7.3,0.,                   111P    101
-0.700504825165412,-4.04435459548318,0.,-3.1,                        111P    102
5.55111512312578D-16,0.,-3.1,-1.08046776423055,                      111P    103
-0.44532188127273,0.,0.,0.;                                          111P    104
126,1,1,0,0,1,0,1.2,1.2,2.4,2.4,1.,1.,0.,0.,-3.1,-12.,0.,-3.1,       113P    105
1.2,2.4,0.,0.,0.;                                                    113P    106
126,1,1,0,0,1,0,-0.38,-0.38,0.12,0.12,1.,1.,-12.,0.,1.9,-12.,0.,     115P    107
-3.1,-0.38,0.12,0.,0.,0.;                                            115P    108
126,1,1,0,0,1,0,0.,0.,0.47,0.47,1.,1.,-12.,0.,1.9,-7.3,0.,1.9,       117P    109
0.,0.47,0.,0.,0.;                                                    117P    110
126,9,3,0,0,1,0,-0.328615285487498,-0.328615285487498,               119P    111
-0.328615285487498,-0.328615285487498,-0.238595541158295,            119P    112
-0.238595541158295,-0.148575796829092,-0.148575796829092,            119P    113
-0.0742878984145459,-0.0742878984145459,0.,0.,0.,0.,1.,1.,1.,1.,     119P    114
1.,1.,1.,1.,1.,1.,7.3,1.38777878078145D-16,-0.700504825165412,       119P    115
7.0584514743354,1.4710637748024D-16,-0.878532358820185,              119P    116
6.79039271261011,0.0463984976285763,-1.06100640351871,               119P    117
6.28006659620941,0.257589425277585,-1.38091596663847,                119P    118
6.03825182444935,0.422925008233929,-1.51871439394152,                119P    119
5.68583171940301,0.796513431005984,-1.70897327773733,                119P    120
5.54203916839862,1.01207605792605,-1.78172895881453,                 119P    121
5.34901722090244,1.49001296586182,-1.87699370020225,5.3,             119P    122
1.75237367195151,-1.9,5.3,2.,-1.9,-0.328615285487498,0.,0.,0.,       119P    123
0.;                                                                  119P    124
126,1,1,0,0,1,0,-0.255,-0.255,0.125,0.125,1.,1.,5.3,2.,-1.9,5.3,     121P    125
2.,1.9,-0.255,0.125,0.,0.,0.;                                        121P    126
126,2,2,0,0,0,0,-0.785398163397449,-0.785398163397449,               123P    127
-0.785398163397449,0.785398163397448,0.785398163397448,              123P    128
0.785398163397448,1.,0.707106781186547,1.,5.3,2.,1.9,5.3,0.,1.9,     123P    129
7.3,0.,1.9,-0.785398163397449,0.785398163397448,0.,0.,0.;            123P    130
126,1,1,0,0,1,0,-0.125,-0.125,0.135050482516541,                     125P    131
0.135050482516541,1.,1.,7.3,0.,1.9,7.3,0.,-0.700504825165413,        125P    132
-0.125,0.135050482516541,0.,0.,0.;                                   125P    133
126,1,1,0,0,1,0,0.2,0.2,2.,2.,1.,1.,5.3,2.,-1.9,5.3,20.,-1.9,        127P    134
0.2,2.,0.,0.,0.;                                                     127P    135
126,1,1,0,0,1,0,0.,0.,0.38,0.38,1.,1.,5.3,20.,1.9,5.3,20.,-1.9,      129P    136
0.,0.38,0.,0.,0.;                                                    129P    137
126,1,1,0,0,1,0,0.2,0.2,2.,2.,1.,1.,5.3,2.,1.9,5.3,20.,1.9,0.2,      131P    138
2.,0.,0.,0.;                                                         131P    139
126,1,1,0,0,1,0,-6.1,-6.1,-5.,-5.,1.,1.,1.,-110.,-3.1,1.,-99.,       133P    140
-3.1,-6.1,-5.,0.,0.,0.;                                              133P    141
126,1,1,0,0,1,0,-0.125,-0.125,0.375,0.375,1.,1.,1.,-110.,1.9,1.,     135P    142
-110.,-3.1,-0.125,0.375,0.,0.,0.;                                    135P    143
126,1,1,0,0,1,0,5.,5.,6.1,6.1,1.,1.,1.,-99.,1.9,1.,-110.,1.9,5.,     137P    144
6.1,0.,0.,0.;                                                        137P    145
126,1,1,0,0,1,0,-1.73,-1.73,-1.3,-1.3,1.,1.,-5.3,-110.,-3.1,-1.,     139P    146
-110.,-3.1,-1.73,-1.3,0.,0.,0.;                                      139P    147
126,1,1,0,0,1,0,1.09935684739623,1.09935684739623,11.,11.,1.,1.,     141P    148
-5.3,-10.9935684739623,-3.1,-5.3,-110.,-3.1,1.09935684739623,        141P    149
11.,0.,0.,0.;                                                        141P    150
126,2,2,0,0,0,0,-1.52792605354866,-1.52792605354866,                 143P    151
-1.52792605354866,0.,0.,0.,1.,0.72210011177715,1.,-5.3,              143P    152
-10.9935684739623,-3.1,-5.3,-4.28740692358749,-3.1,-12.,-4.,         143P    153
-3.1,-1.52792605354866,0.,0.,0.,0.;                                  143P    154
126,1,1,0,0,1,0,0.,0.,0.4,0.4,1.,1.,-12.,0.,-3.1,-12.,-4.,-3.1,      145P    155
0.,0.4,0.,0.,0.;                                                     145P    156
126,1,1,0,0,1,0,0.,0.,1.2,1.2,1.,1.,12.,0.,-3.1,0.,0.,-3.1,0.,       147P    157
1.2,0.,0.,0.;                                                        147P    158
126,1,1,0,0,1,0,0.,0.,0.4,0.4,1.,1.,12.,0.,-3.1,12.,-4.,-3.1,0.,     149P    159
0.4,0.,0.,0.;                                                        149P    160
126,2,2,0,0,0,0,-1.52792605354866,-1.52792605354866,                 151P    161
-1.52792605354866,0.,0.,0.,1.,0.72210011177715,1.,5.3,               151P    162
-10.9935684739623,-3.1,5.3,-4.28740692358749,-3.1,12.,-4.,-3.1,      151P    163
-1.52792605354866,0.,0.,0.,0.;                                       151P    164
126,1,1,0,0,1,0,1.09935684739623,1.09935684739623,11.,11.,1.,1.,     153P    165
5.3,-10.9935684739623,-3.1,5.3,-110.,-3.1,1.09935684739623,11.,      153P    166
0.,0.,0.;                                                            153P    167
126,1,1,0,0,1,0,-1.1,-1.1,-0.67,-0.67,1.,1.,1.,-110.,-3.1,5.3,       155P    168
-110.,-3.1,-1.1,-0.67,0.,0.,0.;                                      155P    169
126,1,1,0,0,1,0,-1.1,-1.1,-0.67,-0.67,1.,1.,-1.,-110.,1.9,-5.3,      157P    170
-110.,1.9,-1.1,-0.67,0.,0.,0.;                                       157P    171
126,1,1,0,0,1,0,-0.38,-0.38,0.12,0.12,1.,1.,-5.3,-110.,1.9,-5.3,     159P    172
-110.,-3.1,-0.38,0.12,0.,0.,0.;                                      159P    173
126,1,1,0,0,1,0,-1.73,-1.73,-1.3,-1.3,1.,1.,5.3,-110.,1.9,1.,        161P    174
-110.,1.9,-1.73,-1.3,0.,0.,0.;                                       161P    175
126,1,1,0,0,1,0,1.09935684739623,1.09935684739623,11.,11.,1.,1.,     163P    176
5.3,-10.9935684739623,1.9,5.3,-110.,1.9,1.09935684739623,11.,0.,     163P    177
0.,0.;                                                               163P    178
126,2,2,0,0,0,0,-1.52792605354866,-1.52792605354866,                 165P    179
-1.52792605354866,0.,0.,0.,1.,0.72210011177715,1.,5.3,               165P    180
-10.9935684739623,1.9,5.3,-4.28740692358749,1.9,12.,-4.,1.9,         165P    181
-1.52792605354866,0.,0.,0.,0.;                                       165P    182
126,1,1,0,0,1,0,0.,0.,0.4,0.4,1.,1.,12.,0.,1.9,12.,-4.,1.9,0.,       167P    183
0.4,0.,0.,0.;                                                        167P    184
126,1,1,0,0,1,0,1.93,1.93,2.4,2.4,1.,1.,7.3,0.,1.9,12.,0.,1.9,       169P    185
1.93,2.4,0.,0.,0.;                                                   169P    186
126,1,1,0,0,1,0,0.67,0.67,1.73,1.73,1.,1.,-5.3,20.,1.9,5.3,20.,      171P    187
1.9,0.67,1.73,0.,0.,0.;                                              171P    188
126,1,1,0,0,1,0,0.2,0.2,2.,2.,1.,1.,-5.3,2.,1.9,-5.3,20.,1.9,        173P    189
0.2,2.,0.,0.,0.;                                                     173P    190
126,1,1,0,0,1,0,0.,0.,0.4,0.4,1.,1.,-12.,0.,1.9,-12.,-4.,1.9,0.,     175P    191
0.4,0.,0.,0.;                                                        175P    192
126,2,2,0,0,0,0,-1.52792605354866,-1.52792605354866,                 177P    193
-1.52792605354866,0.,0.,0.,1.,0.72210011177715,1.,-5.3,              177P    194
-10.9935684739623,1.9,-5.3,-4.28740692358749,1.9,-12.,-4.,1.9,       177P    195
-1.52792605354866,0.,0.,0.,0.;                                       177P    196
126,1,1,0,0,1,0,1.09935684739623,1.09935684739623,11.,11.,1.,1.,     179P    197
-5.3,-10.9935684739623,1.9,-5.3,-110.,1.9,1.09935684739623,11.,      179P    198
0.,0.,0.;                                                            179P    199
126,1,1,0,0,1,0,-0.171428571428572,-0.171428571428572,               181P    200
0.542857142857143,0.542857142857143,1.,1.,-5.3,                      181P    201
-10.9935684739623,-3.1,-5.3,-10.9935684739623,1.9,                   181P    202
-0.171428571428572,0.542857142857143,0.,0.,0.;                       181P    203
126,1,1,0,0,1,0,-0.38,-0.38,0.12,0.12,1.,1.,-12.,-4.,1.9,-12.,       183P    204
-4.,-3.1,-0.38,0.12,0.,0.,0.;                                        183P    205
126,1,1,0,0,1,0,0.,0.,0.714285714285715,0.714285714285715,1.,1.,     185P    206
5.3,-10.9935684739623,1.9,5.3,-10.9935684739623,-3.1,0.,             185P    207
0.714285714285715,0.,0.,0.;                                          185P    208
126,1,1,0,0,1,0,-0.5,-0.5,0.,0.,1.,1.,12.,-4.,-3.1,12.,-4.,1.9,      187P    209
-0.5,0.,0.,0.,0.;                                                    187P    210
126,1,1,0,0,1,0,-0.5,-0.5,0.,0.,1.,1.,5.3,-110.,-3.1,5.3,-110.,      189P    211
1.9,-0.5,0.,0.,0.,0.;                                                189P    212
126,2,2,0,0,0,0,-0.44532188127273,-0.44532188127273,                 191P    213
-0.44532188127273,0.189824001685087,0.189824001685087,               191P    214
0.189824001685087,1.,0.949996092996376,1.,5.55111512312578D-16,      191P    215
0.,-3.1,4.04435459548318,0.,-3.1,7.3,0.,-0.700504825165411,          191P    216
-0.44532188127273,0.189824001685087,0.,0.,0.;                        191P    217
126,1,1,0,0,1,0,0.2,0.2,2.,2.,1.,1.,-5.3,2.,-1.9,-5.3,20.,-1.9,      193P    218
0.2,2.,0.,0.,0.;                                                     193P    219
126,2,2,0,0,0,0,0.,0.,0.,0.89064376254546,0.89064376254546,          195P    220
0.89064376254546,1.,0.902472062309513,1.,5.3,20.,-1.9,               195P    221
1.66533453693773D-15,20.,-4.42968105065666,-5.3,20.,-1.9,0.,         195P    222
0.89064376254546,0.,0.,0.;                                           195P    223
126,1,1,0,0,1,0,0.,0.,0.38,0.38,1.,1.,-5.3,20.,-1.9,-5.3,20.,        197P    224
1.9,0.,0.38,0.,0.,0.;                                                197P    225
126,1,1,0,0,1,0,0.,0.,0.5,0.5,1.,1.,12.,0.,1.9,12.,0.,-3.1,0.,       199P    226
0.5,0.,0.,0.;                                                        199P    227
128,1,1,1,1,0,0,1,0,0,-0.001,-0.001,1.101,1.101,-0.001,-0.001,       201P    228
0.501,0.501,1.,1.,1.,1.,-1.,-98.99,1.91,-1.,-110.01,1.91,-1.,        201P    229
-98.99,-3.11,-1.,-110.01,-3.11,-0.001,1.101,-0.001,0.501;            201P    230
128,1,4,1,2,0,0,0,0,0,0.,0.,5.,5.,-2.35619449019236,                 203P    231
-2.35619449019236,-2.35619449019236,-0.785398163397459,              203P    232
-0.785398163397459,0.785398163397438,0.785398163397438,              203P    233
0.785398163397438,1.,1.,0.707106781186547,0.707106781186547,1.,      203P    234
1.,0.707106781186547,0.707106781186547,1.,1.,-1.,-99.,1.9,-1.,       203P    235
-99.,-3.1,-0.999999999999998,-98.,1.9,-0.999999999999998,-98.,       203P    236
-3.1,-4.85722573273506D-15,-98.,1.9,-4.85722573273506D-15,-98.,      203P    237
-3.1,1.00000000000001,-98.,1.9,1.00000000000001,-98.,-3.1,1.,        203P    238
-99.,1.9,1.,-99.,-3.1,0.,5.,-2.35619449019236,0.785398163397438;     203P    239
128,1,2,1,2,0,0,0,0,0,-0.325,-0.325,1.575,1.575,                     205P    240
-0.785398163397448,-0.785398163397448,-0.785398163397448,            205P    241
0.785398163397449,0.785398163397449,0.785398163397449,1.,1.,         205P    242
0.707106781186548,0.707106781186548,1.,1.,-7.3,                      205P    243
1.38777878078145D-16,-1.9,-7.3,1.38777878078145D-16,1.9,-5.3,0.,     205P    244
-1.9,-5.3,0.,1.9,-5.3,2.,-1.9,-5.3,2.,1.9,-0.325,1.575,              205P    245
-0.785398163397448,0.785398163397449;                                205P    246
128,1,1,1,1,0,0,1,0,0,-1.201,-1.201,0.00100000000000011,             207P    247
0.00100000000000011,-0.251,-0.251,0.251,0.251,1.,1.,1.,1.,           207P    248
-12.01,0.,1.91,0.0100000000000006,0.,1.91,-12.01,0.,-3.11,           207P    249
0.0100000000000011,0.,-3.11,-1.201,0.00100000000000011,-0.251,       207P    250
0.251;                                                               207P    251
128,1,2,1,2,0,0,0,0,0,-0.625000000000001,-0.625000000000001,         209P    252
1.275,1.275,-0.785398163397448,-0.785398163397448,                   209P    253
-0.785398163397448,0.785398163397449,0.785398163397449,              209P    254
0.785398163397449,1.,1.,0.707106781186548,0.707106781186548,1.,      209P    255
1.,7.3,1.38777878078145D-16,1.9,7.3,1.38777878078145D-16,-1.9,       209P    256
5.3,0.,1.9,5.3,0.,-1.9,5.3,2.,1.9,5.3,2.,-1.9,                       209P    257
-0.625000000000001,1.275,-0.785398163397448,0.785398163397449;       209P    258
128,1,1,1,1,0,0,1,0,0,-0.001,-0.001,0.381,0.381,0.199,0.199,         211P    259
2.001,2.001,1.,1.,1.,1.,5.3,1.99,1.91,5.3,1.99,-1.91,5.3,20.01,      211P    260
1.91,5.3,20.01,-1.91,-0.001,0.381,0.199,2.001;                       211P    261
128,1,1,1,1,0,0,1,0,0,0.0989999999999996,0.0989999999999996,         213P    262
1.201,1.201,-0.001,-0.001,0.501,0.501,1.,1.,1.,1.,1.,-110.01,        213P    263
1.91,1.,-98.99,1.91,1.,-110.01,-3.11,1.,-98.99,-3.11,                213P    264
0.0989999999999996,1.201,-0.001,0.501;                               213P    265
128,1,1,1,1,0,0,1,0,0,-0.001,-0.001,2.401,2.401,-0.001,-0.001,       215P    266
11.001,11.001,1.,1.,1.,1.,-12.01,0.01,-3.1,12.01,0.01,-3.1,          215P    267
-12.01,-110.01,-3.1,12.01,-110.01,-3.1,-0.001,2.401,-0.001,          215P    268
11.001;                                                              215P    269
128,1,1,1,1,0,0,1,0,0,-0.251,-0.251,0.251,0.251,-0.531,-0.531,       217P    270
-0.099,-0.099,1.,1.,1.,1.,-5.31,-110.,1.91,-5.31,-110.,-3.11,        217P    271
-0.99,-110.,1.91,-0.990000000000001,-110.,-3.11,-0.251,0.251,        217P    272
-0.531,-0.099;                                                       217P    273
128,1,1,1,1,0,0,1,0,0,-0.001,-0.001,2.401,2.401,-2.001,-2.001,       219P    274
11.001,11.001,1.,1.,1.,1.,12.01,20.01,1.9,-12.01,20.01,1.9,          219P    275
12.01,-110.01,1.9,-12.01,-110.01,1.9,-0.001,2.401,-2.001,11.001;     219P    276
128,1,2,1,2,0,0,0,0,0,-0.542857142857143,-0.542857142857143,         221P    277
0.171428571428572,0.171428571428572,0.,0.,0.,1.52792605354866,       221P    278
1.52792605354866,1.52792605354866,1.,1.,0.722100111777149,           221P    279
0.722100111777149,1.,1.,-12.,-4.,1.9,-12.,-4.,-3.1,-5.3,             221P    280
-4.28740692358749,1.9,-5.3,-4.28740692358749,-3.1,-5.3,              221P    281
-10.9935684739623,1.9,-5.3,-10.9935684739623,-3.1,                   221P    282
-0.542857142857143,0.171428571428572,0.,1.52792605354866;            221P    283
128,1,2,1,2,0,0,0,0,0,-0.714285714285715,-0.714285714285715,0.,      223P    284
0.,0.,0.,0.,1.52792605354866,1.52792605354866,1.52792605354866,      223P    285
1.,1.,0.722100111777149,0.722100111777149,1.,1.,12.,-4.,-3.1,        223P    286
12.,-4.,1.9,5.3,-4.28740692358749,-3.1,5.3,-4.28740692358749,        223P    287
1.9,5.3,-10.9935684739623,-3.1,5.3,-10.9935684739623,1.9,            223P    288
-0.714285714285715,0.,0.,1.52792605354866;                           223P    289
128,1,1,1,1,0,0,1,0,0,-0.00100000000000006,-0.00100000000000006,     225P    290
0.501,0.501,1.09835684739623,1.09835684739623,11.001,11.001,1.,      225P    291
1.,1.,1.,-5.3,-10.9835684739623,1.91,-5.3,-10.9835684739623,         225P    292
-3.11,-5.3,-110.01,1.91,-5.3,-110.01,-3.11,-0.00100000000000006,     225P    293
0.501,1.09835684739623,11.001;                                       225P    294
128,1,1,1,1,0,0,1,0,0,-0.001,-0.001,0.501,0.501,                     227P    295
1.09835684739623,1.09835684739623,11.001,11.001,1.,1.,1.,1.,5.3,     227P    296
-10.9835684739623,-3.11,5.3,-10.9835684739623,1.91,5.3,-110.01,      227P    297
-3.11,5.3,-110.01,1.91,-0.001,0.501,1.09835684739623,11.001;         227P    298
128,1,1,1,1,0,0,1,0,0,-0.251,-0.251,0.251,0.251,0.099,0.099,         229P    299
0.531,0.531,1.,1.,1.,1.,0.99,-110.,1.91,0.99,-110.,-3.11,5.31,       229P    300
-110.,1.91,5.31,-110.,-3.11,-0.251,0.251,0.099,0.531;                229P    301
128,1,2,1,2,0,0,0,0,0,0.,0.,1.62546562817474,1.62546562817474,       231P    302
-0.189824001685087,-0.189824001685087,-0.189824001685087,            231P    303
1.08046776423055,1.08046776423055,1.08046776423055,1.,1.,            231P    304
0.804985153416762,0.804985153416762,1.,1.,7.3,20.,                   231P    305
-0.700504825165411,7.3,0.,-0.700504825165411,                        231P    306
3.33066907387547D-15,20.,-6.08079432229268,3.33066907387547D-15,     231P    307
0.,-6.08079432229268,-7.3,20.,-0.700504825165414,-7.3,0.,            231P    308
-0.700504825165414,0.,1.62546562817474,-0.189824001685087,           231P    309
1.08046776423055;                                                    231P    310
128,1,1,1,1,0,0,1,0,0,-0.00100000000000017,-0.00100000000000017,     233P    311
0.381,0.381,0.199,0.199,2.001,2.001,1.,1.,1.,1.,-5.3,1.99,-1.91,     233P    312
-5.3,1.99,1.91,-5.3,20.01,-1.91,-5.3,20.01,1.91,                     233P    313
-0.00100000000000017,0.381,0.199,2.001;                              233P    314
128,1,1,1,1,0,0,1,0,0,-0.531,-0.531,0.531,0.531,-0.251,-0.251,       235P    315
0.383968105065666,0.383968105065666,1.,1.,1.,1.,-5.31,20.,1.91,      235P    316
5.31,20.,1.91,-5.31,20.,-4.43968105065666,5.31,20.,                  235P    317
-4.43968105065666,-0.531,0.531,-0.251,0.383968105065666;             235P    318
128,1,1,1,1,0,0,1,0,0,-0.001,-0.001,0.501,0.501,-0.001,-0.001,       237P    319
0.401,0.401,1.,1.,1.,1.,12.,0.01,-3.11,12.,0.01,1.91,12.,-4.01,      237P    320
-3.11,12.,-4.01,1.91,-0.001,0.501,-0.001,0.401;                      237P    321
128,1,1,1,1,0,0,1,0,0,-0.00100000000000006,-0.00100000000000006,     239P    322
0.501,0.501,-0.001,-0.001,0.401,0.401,1.,1.,1.,1.,-12.,0.01,         239P    323
1.91,-12.,0.01,-3.11,-12.,-4.01,1.91,-12.,-4.01,-3.11,               239P    324
-0.00100000000000006,0.501,-0.001,0.401;                             239P    325
128,1,1,1,1,0,0,1,0,0,-0.001,-0.001,1.201,1.201,-0.251,-0.251,       241P    326
0.251,0.251,1.,1.,1.,1.,-0.01,0.,1.91,12.01,0.,1.91,-0.01,0.,        241P    327
-3.11,12.01,0.,-3.11,-0.001,1.201,-0.251,0.251;                      241P    328
502,37,-1.,-99.,1.9,-1.,-99.,-3.1,-1.,-110.,1.9,-1.,-110.,-3.1,      243P    329
1.,-99.,1.9,1.,-99.,-3.1,-5.3,2.,-1.9,-7.3,0.,                       243P    330
-0.700504825165413,-7.3,0.,1.9,-5.3,2.,1.9,0.,0.,-3.1,-12.,0.,       243P    331
-3.1,-12.,0.,1.9,7.3,0.,-0.700504825165413,5.3,2.,-1.9,5.3,2.,       243P    332
1.9,7.3,0.,1.9,5.3,20.,-1.9,5.3,20.,1.9,1.,-110.,-3.1,1.,-110.,      243P    333
1.9,-5.3,-110.,-3.1,-5.3,-10.9935684739623,-3.1,-12.,-4.,-3.1,       243P    334
12.,0.,-3.1,12.,-4.,-3.1,5.3,-10.9935684739623,-3.1,5.3,-110.,       243P    335
-3.1,-5.3,-110.,1.9,5.3,-110.,1.9,5.3,-10.9935684739623,1.9,12.,     243P    336
-4.,1.9,12.,0.,1.9,-5.3,20.,1.9,-12.,-4.,1.9,-5.3,                   243P    337
-10.9935684739623,1.9,-5.3,20.,-1.9;                                 243P    338
504,56,89,243,1,243,2,91,243,3,243,1,93,243,4,243,3,95,243,2,        245P    339
243,4,97,243,5,243,1,99,243,2,243,6,101,243,6,243,5,103,243,7,       245P    340
243,8,105,243,8,243,9,107,243,9,243,10,109,243,10,243,7,111,243,     245P    341
8,243,11,113,243,11,243,12,115,243,13,243,12,117,243,13,243,9,       245P    342
119,243,14,243,15,121,243,15,243,16,123,243,16,243,17,125,243,       245P    343
17,243,14,127,243,15,243,18,129,243,19,243,18,131,243,16,243,19,     245P    344
133,243,20,243,6,135,243,21,243,20,137,243,5,243,21,139,243,22,      245P    345
243,4,141,243,23,243,22,143,243,23,243,24,145,243,12,243,24,147,     245P    346
243,25,243,11,149,243,25,243,26,151,243,27,243,26,153,243,27,        245P    347
243,28,155,243,20,243,28,157,243,3,243,29,159,243,29,243,22,161,     245P    348
243,30,243,21,163,243,31,243,30,165,243,31,243,32,167,243,33,        245P    349
243,32,169,243,17,243,33,171,243,34,243,19,173,243,10,243,34,        245P    350
175,243,13,243,35,177,243,36,243,35,179,243,36,243,29,181,243,       245P    351
23,243,36,183,243,35,243,24,185,243,31,243,27,187,243,26,243,32,     245P    352
189,243,28,243,30,191,243,11,243,14,193,243,7,243,37,195,243,18,     245P    353
243,37,197,243,37,243,34,199,243,33,243,25;                          245P    354
406,1,5HBody7;                                                       247P    355
314,62.7450980392157,62.7450980392157,62.7450980392157,13HSteel      249P    356
- Satin;                                                             249P    357
S      1G      3D    250P    357                                        T      1
